<svg width="16" height="14" viewBox="0 0 16 14" fill="none" xmlns="http://www.w3.org/2000/svg">
<path fill-rule="evenodd" clip-rule="evenodd" d="M7.00879 2.57507C5.79585 1.36213 3.82927 1.36213 2.61633 2.57507C1.40339 3.78802 1.40339 5.75459 2.61633 6.96753L3.13614 7.48733C3.14463 7.49583 3.15288 7.50453 3.16086 7.51343L8 12.3526L12.8389 7.51364C12.847 7.5047 12.8553 7.49593 12.8639 7.48733L13.3837 6.96753C14.5966 5.75459 14.5966 3.78802 13.3837 2.57507C12.1707 1.36213 10.2042 1.36213 8.99121 2.57507L8.4714 3.09488C8.21105 3.35523 7.78894 3.35523 7.52859 3.09488L7.00879 2.57507ZM13.8323 8.40452C13.8243 8.41346 13.816 8.42223 13.8074 8.43083L8.47209 13.7661C8.34703 13.8912 8.17739 13.9614 8.00053 13.9614C8.00035 13.9614 8.00071 13.9614 8.00053 13.9614C8.00035 13.9614 7.99964 13.9614 7.99947 13.9614C7.8226 13.9614 7.65297 13.8912 7.52791 13.7661L2.19264 8.43083C2.18404 8.42223 2.17573 8.41346 2.1677 8.40452L1.67352 7.91034C-0.0601184 6.1767 -0.060121 3.36591 1.67352 1.63226C3.40716 -0.101379 6.21796 -0.101379 7.9516 1.63226L8 1.68066L8.0484 1.63226C9.78204 -0.10138 12.5928 -0.101379 14.3265 1.63226C16.0601 3.36591 16.0601 6.1767 14.3265 7.91034L13.8323 8.40452Z" fill="#1D1D1B"/>
</svg>
