<svg width="375" height="667" viewBox="0 0 375 667" fill="none" xmlns="http://www.w3.org/2000/svg">
<rect width="375" height="667" fill="#F7146B"/>
<g clip-path="url(#clip0_424_651)">
<rect width="100" height="73" transform="translate(137 259)" fill="#F7146B"/>
<path d="M153.098 272.268C152.746 272.268 152.396 272.337 152.07 272.472C151.744 272.606 151.448 272.803 151.199 273.052C150.95 273.3 150.752 273.595 150.618 273.92C150.483 274.245 150.414 274.593 150.415 274.944V301.682C150.415 310.555 157.622 317.748 166.507 317.748C175.393 317.748 182.598 310.555 182.598 301.682V282.967C182.598 281.491 181.397 280.293 179.915 280.293C179.562 280.293 179.213 280.363 178.888 280.498C178.562 280.632 178.267 280.83 178.018 281.078C177.769 281.327 177.572 281.621 177.437 281.946C177.303 282.27 177.234 282.618 177.235 282.969V301.584C177.235 307.573 172.422 312.403 166.507 312.403C160.592 312.403 155.778 307.575 155.778 301.586V274.944C155.778 273.466 154.578 272.268 153.098 272.268ZM193.323 259C190.19 258.999 187.125 259.909 184.503 261.616C181.881 263.323 179.816 265.755 178.562 268.613C177.785 270.376 179.122 272.349 181.055 272.349C181.584 272.345 182.1 272.189 182.542 271.899C182.983 271.609 183.33 271.198 183.542 270.715C185.232 266.96 188.98 264.347 193.32 264.347C199.243 264.347 204.062 269.212 204.062 275.188V301.722C204.062 302.43 204.344 303.11 204.848 303.611C205.351 304.112 206.034 304.394 206.746 304.394C207.458 304.394 208.14 304.112 208.644 303.611C209.147 303.11 209.43 302.43 209.43 301.722V275.035C209.43 266.179 202.217 259 193.32 259H193.323Z" fill="white"/>
<path d="M193.263 272.356C191.78 272.356 190.575 273.554 190.575 275.027V301.712C190.575 310.57 197.8 317.747 206.712 317.747C215.622 317.747 222.847 310.566 222.847 301.712V299.06C222.847 297.587 221.642 296.389 220.158 296.389C218.675 296.389 217.47 297.587 217.47 299.06V301.615C217.47 307.595 212.643 312.458 206.712 312.458C200.778 312.458 195.953 307.591 195.953 301.615V275.027C195.953 273.554 194.748 272.356 193.263 272.356ZM137 275.037C137 266.181 144.205 259 153.09 259C161.977 259 169.182 266.179 169.182 275.037V301.722C169.157 302.413 168.864 303.069 168.364 303.549C167.863 304.03 167.195 304.299 166.5 304.299C165.805 304.299 165.137 304.03 164.636 303.549C164.136 303.069 163.843 302.413 163.818 301.722V275.191C163.818 269.215 159.005 264.349 153.09 264.349C147.175 264.349 142.363 269.212 142.363 275.191V280.361C142.339 281.052 142.046 281.708 141.545 282.188C141.045 282.669 140.377 282.938 139.682 282.938C138.986 282.938 138.318 282.669 137.818 282.188C137.318 281.708 137.025 281.052 137 280.361V275.035V275.037ZM139.492 291.042C138.075 291.137 137 292.381 137 293.801V302.782C137 310.249 139.95 317.135 144.742 322.253C145.252 322.797 145.942 323.069 146.63 323.069C147.32 323.069 147.963 322.815 148.473 322.306C148.951 321.83 149.225 321.187 149.238 320.514C149.25 319.841 149 319.189 148.54 318.696C144.553 314.488 142.334 308.921 142.34 303.137V293.707C142.34 292.232 141.142 291.035 139.668 291.035L139.492 291.042ZM226.79 259.008H226.608C226.241 259.016 225.875 259.045 225.512 259.096C225.495 259.096 225.483 259.1 225.467 259.103C223.231 259.42 221.185 260.53 219.705 262.228C218.224 263.926 217.409 266.099 217.408 268.347V285.696C217.408 287.17 218.608 288.366 220.088 288.366C220.148 288.366 220.21 288.366 220.268 288.361C221.692 288.266 222.768 287.025 222.768 285.607V268.463C222.768 266.312 224.428 264.457 226.59 264.351C227.606 264.298 228.604 264.634 229.38 265.29C229.42 265.324 229.46 265.356 229.502 265.394C229.543 265.434 229.59 265.474 229.63 265.517C229.678 265.565 229.727 265.616 229.775 265.67C229.82 265.719 229.863 265.769 229.905 265.821C229.948 265.872 229.988 265.925 230.028 265.978C230.058 266.018 230.088 266.056 230.115 266.096C230.168 266.174 230.22 266.254 230.265 266.333C230.287 266.368 230.305 266.403 230.323 266.438C230.373 266.529 230.42 266.622 230.467 266.718L230.5 266.798C230.604 267.038 230.682 267.288 230.733 267.544C230.758 267.66 230.777 267.777 230.79 267.898L230.795 267.964C230.807 268.09 230.815 268.215 230.815 268.344V303.065C230.815 304.268 230.718 305.451 230.532 306.604C230.468 306.986 230.488 307.378 230.592 307.751C230.695 308.125 230.879 308.471 231.13 308.767C231.381 309.063 231.694 309.301 232.047 309.464C232.4 309.628 232.784 309.713 233.173 309.713H233.185C234.502 309.713 235.628 308.758 235.833 307.457C236.061 306.014 236.174 304.555 236.173 303.094V268.346C236.177 265.935 235.24 263.617 233.56 261.88C231.991 260.247 229.878 259.238 227.617 259.041L227.515 259.033C227.331 259.021 227.146 259.012 226.962 259.007C226.907 259.007 226.85 259 226.793 259L226.79 259.008Z" fill="white"/>
<path d="M186.623 315.041C185.37 315.041 184.19 315.633 183.44 316.633L183.428 316.65C179.268 322.203 172.63 325.803 165.165 325.803C162.954 325.805 160.756 325.484 158.638 324.851C158.388 324.775 158.138 324.74 157.885 324.74C157.19 324.74 156.51 325.017 156.002 325.52C154.577 326.943 155.193 329.362 157.118 329.953C159.667 330.734 162.368 331.104 165.157 331.104H165.223C169.502 331.096 173.55 330.188 177.177 328.474C180.803 326.76 184.021 324.297 186.617 321.249C189.255 324.349 192.543 326.836 196.248 328.539C199.954 330.241 203.989 331.117 208.07 331.104C214.298 331.104 220.05 329.141 224.715 325.725C224.865 325.616 224.997 325.495 225.112 325.37L225.117 325.364C225.412 325.14 225.7 324.912 225.983 324.677L226.033 324.637C226.292 324.421 226.543 324.206 226.793 323.983C226.838 323.943 226.887 323.902 226.932 323.859C227.142 323.67 227.345 323.477 227.548 323.281L227.795 323.049C227.968 322.88 228.137 322.706 228.303 322.532C228.393 322.439 228.487 322.347 228.578 322.25L228.603 322.225C229.142 321.649 229.66 321.055 230.148 320.436C231.535 318.687 230.307 316.118 228.075 316.118H227.997C227.185 316.118 226.425 316.499 225.922 317.138C225.524 317.636 225.106 318.117 224.668 318.581L224.66 318.588C224.02 319.266 223.338 319.905 222.622 320.501L222.58 320.534C222.457 320.637 222.33 320.735 222.207 320.838L222.123 320.904L221.767 321.178L221.653 321.261L221.308 321.511C221.265 321.544 221.222 321.574 221.18 321.602C221.067 321.684 220.952 321.762 220.838 321.838L220.695 321.934L220.353 322.157L220.2 322.253C220.088 322.325 219.974 322.396 219.86 322.465L219.698 322.561L219.358 322.761L219.192 322.855C219.077 322.921 218.962 322.984 218.847 323.046L218.68 323.134L218.327 323.32L218.165 323.399C218.042 323.461 217.922 323.52 217.798 323.578L217.665 323.64C217.222 323.846 216.768 324.038 216.31 324.216L216.185 324.265C216.075 324.307 215.963 324.348 215.852 324.386C215.773 324.414 215.695 324.442 215.618 324.473L215.312 324.577L215.048 324.665L214.748 324.76L214.47 324.844C214.372 324.873 214.274 324.901 214.175 324.927L213.885 325.009C213.788 325.035 213.688 325.058 213.592 325.083C213.395 325.13 213.198 325.176 213.002 325.223L212.693 325.289L212.405 325.349C212.3 325.37 212.192 325.389 212.088 325.407C211.993 325.423 211.897 325.442 211.8 325.457L211.477 325.506C211.382 325.52 211.288 325.536 211.193 325.546C211.08 325.563 210.967 325.576 210.857 325.589L210.58 325.622L210.23 325.656L209.962 325.681L209.59 325.707C209.505 325.712 209.423 325.72 209.337 325.724C209.2 325.73 209.06 325.737 208.923 325.74C208.85 325.74 208.78 325.747 208.708 325.75C208.5 325.755 208.287 325.758 208.075 325.758C200.62 325.758 193.99 322.17 189.827 316.637L189.813 316.662L189.797 316.637C189.429 316.144 188.95 315.743 188.399 315.466C187.849 315.189 187.24 315.043 186.623 315.041Z" fill="white"/>
</g>
<path d="M107.261 399L100.602 375.727H105.977L109.83 391.898H110.023L114.273 375.727H118.875L123.114 391.932H123.318L127.17 375.727H132.545L125.886 399H121.091L116.659 383.784H116.477L112.057 399H107.261ZM135.088 399V381.545H139.929V399H135.088ZM137.52 379.295C136.8 379.295 136.183 379.057 135.668 378.58C135.16 378.095 134.906 377.515 134.906 376.841C134.906 376.174 135.16 375.602 135.668 375.125C136.183 374.64 136.8 374.398 137.52 374.398C138.24 374.398 138.853 374.64 139.361 375.125C139.876 375.602 140.134 376.174 140.134 376.841C140.134 377.515 139.876 378.095 139.361 378.58C138.853 379.057 138.24 379.295 137.52 379.295ZM148.648 375.727V399H143.807V375.727H148.648ZM158.957 399.284C157.632 399.284 156.431 398.943 155.355 398.261C154.287 397.572 153.438 396.561 152.81 395.227C152.188 393.886 151.878 392.242 151.878 390.295C151.878 388.295 152.2 386.633 152.844 385.307C153.488 383.973 154.344 382.977 155.412 382.318C156.488 381.652 157.666 381.318 158.946 381.318C159.923 381.318 160.738 381.485 161.389 381.818C162.048 382.144 162.579 382.553 162.98 383.045C163.389 383.53 163.7 384.008 163.912 384.477H164.06V375.727H168.889V399H164.116V396.205H163.912C163.685 396.689 163.363 397.17 162.946 397.648C162.537 398.117 162.003 398.508 161.344 398.818C160.692 399.129 159.897 399.284 158.957 399.284ZM160.491 395.432C161.272 395.432 161.931 395.22 162.469 394.795C163.014 394.364 163.431 393.761 163.719 392.989C164.014 392.216 164.162 391.311 164.162 390.273C164.162 389.235 164.018 388.333 163.73 387.568C163.442 386.803 163.026 386.212 162.48 385.795C161.935 385.379 161.272 385.17 160.491 385.17C159.696 385.17 159.026 385.386 158.48 385.818C157.935 386.25 157.522 386.848 157.241 387.614C156.961 388.379 156.821 389.265 156.821 390.273C156.821 391.288 156.961 392.186 157.241 392.966C157.529 393.739 157.942 394.345 158.48 394.784C159.026 395.216 159.696 395.432 160.491 395.432ZM192.991 382.42C192.901 381.504 192.51 380.792 191.821 380.284C191.132 379.777 190.196 379.523 189.014 379.523C188.211 379.523 187.533 379.636 186.98 379.864C186.427 380.083 186.003 380.39 185.707 380.784C185.42 381.178 185.276 381.625 185.276 382.125C185.26 382.542 185.348 382.905 185.537 383.216C185.734 383.527 186.003 383.795 186.344 384.023C186.685 384.242 187.079 384.436 187.526 384.602C187.973 384.761 188.45 384.898 188.957 385.011L191.048 385.511C192.063 385.739 192.995 386.042 193.844 386.42C194.692 386.799 195.427 387.265 196.048 387.818C196.67 388.371 197.151 389.023 197.491 389.773C197.84 390.523 198.018 391.383 198.026 392.352C198.018 393.777 197.654 395.011 196.935 396.057C196.223 397.095 195.192 397.902 193.844 398.477C192.503 399.045 190.885 399.33 188.991 399.33C187.113 399.33 185.476 399.042 184.082 398.466C182.696 397.89 181.613 397.038 180.832 395.909C180.06 394.773 179.654 393.367 179.616 391.693H184.378C184.431 392.473 184.654 393.125 185.048 393.648C185.45 394.163 185.984 394.553 186.651 394.818C187.325 395.076 188.086 395.205 188.935 395.205C189.768 395.205 190.491 395.083 191.105 394.841C191.726 394.598 192.207 394.261 192.548 393.83C192.889 393.398 193.06 392.902 193.06 392.341C193.06 391.818 192.904 391.379 192.594 391.023C192.291 390.667 191.844 390.364 191.253 390.114C190.67 389.864 189.954 389.636 189.105 389.432L186.571 388.795C184.609 388.318 183.06 387.572 181.923 386.557C180.787 385.542 180.223 384.174 180.23 382.455C180.223 381.045 180.598 379.814 181.355 378.761C182.12 377.708 183.17 376.886 184.503 376.295C185.836 375.705 187.351 375.409 189.048 375.409C190.776 375.409 192.283 375.705 193.571 376.295C194.866 376.886 195.874 377.708 196.594 378.761C197.313 379.814 197.685 381.034 197.707 382.42H192.991ZM209.131 399.341C207.366 399.341 205.839 398.966 204.551 398.216C203.271 397.458 202.282 396.405 201.585 395.057C200.888 393.701 200.54 392.129 200.54 390.341C200.54 388.538 200.888 386.962 201.585 385.614C202.282 384.258 203.271 383.205 204.551 382.455C205.839 381.697 207.366 381.318 209.131 381.318C210.896 381.318 212.419 381.697 213.699 382.455C214.987 383.205 215.979 384.258 216.676 385.614C217.373 386.962 217.722 388.538 217.722 390.341C217.722 392.129 217.373 393.701 216.676 395.057C215.979 396.405 214.987 397.458 213.699 398.216C212.419 398.966 210.896 399.341 209.131 399.341ZM209.153 395.591C209.956 395.591 210.627 395.364 211.165 394.909C211.703 394.447 212.108 393.818 212.381 393.023C212.661 392.227 212.801 391.322 212.801 390.307C212.801 389.292 212.661 388.386 212.381 387.591C212.108 386.795 211.703 386.167 211.165 385.705C210.627 385.242 209.956 385.011 209.153 385.011C208.343 385.011 207.661 385.242 207.108 385.705C206.563 386.167 206.15 386.795 205.869 387.591C205.597 388.386 205.46 389.292 205.46 390.307C205.46 391.322 205.597 392.227 205.869 393.023C206.15 393.818 206.563 394.447 207.108 394.909C207.661 395.364 208.343 395.591 209.153 395.591ZM228.756 399.341C226.968 399.341 225.43 398.962 224.142 398.205C222.862 397.439 221.877 396.379 221.188 395.023C220.506 393.667 220.165 392.106 220.165 390.341C220.165 388.553 220.509 386.985 221.199 385.636C221.896 384.28 222.884 383.223 224.165 382.466C225.445 381.701 226.968 381.318 228.733 381.318C230.256 381.318 231.589 381.595 232.733 382.148C233.877 382.701 234.782 383.477 235.449 384.477C236.116 385.477 236.483 386.652 236.551 388H231.983C231.854 387.129 231.513 386.428 230.96 385.898C230.415 385.36 229.699 385.091 228.812 385.091C228.062 385.091 227.407 385.295 226.847 385.705C226.294 386.106 225.862 386.693 225.551 387.466C225.241 388.239 225.085 389.174 225.085 390.273C225.085 391.386 225.237 392.333 225.54 393.114C225.85 393.894 226.286 394.489 226.847 394.898C227.407 395.307 228.062 395.511 228.812 395.511C229.366 395.511 229.862 395.398 230.301 395.17C230.748 394.943 231.116 394.614 231.403 394.182C231.699 393.742 231.892 393.216 231.983 392.602H236.551C236.475 393.936 236.112 395.11 235.46 396.125C234.816 397.133 233.926 397.92 232.79 398.489C231.653 399.057 230.309 399.341 228.756 399.341ZM239.651 399V381.545H244.491V399H239.651ZM242.082 379.295C241.363 379.295 240.745 379.057 240.23 378.58C239.723 378.095 239.469 377.515 239.469 376.841C239.469 376.174 239.723 375.602 240.23 375.125C240.745 374.64 241.363 374.398 242.082 374.398C242.802 374.398 243.416 374.64 243.923 375.125C244.438 375.602 244.696 376.174 244.696 376.841C244.696 377.515 244.438 378.095 243.923 378.58C243.416 379.057 242.802 379.295 242.082 379.295ZM253.347 399.33C252.233 399.33 251.241 399.136 250.369 398.75C249.498 398.356 248.809 397.777 248.301 397.011C247.801 396.239 247.551 395.277 247.551 394.125C247.551 393.155 247.729 392.341 248.085 391.682C248.441 391.023 248.926 390.492 249.54 390.091C250.153 389.689 250.85 389.386 251.631 389.182C252.419 388.977 253.244 388.833 254.108 388.75C255.123 388.644 255.941 388.545 256.562 388.455C257.184 388.356 257.634 388.212 257.915 388.023C258.195 387.833 258.335 387.553 258.335 387.182V387.114C258.335 386.394 258.108 385.837 257.653 385.443C257.206 385.049 256.57 384.852 255.744 384.852C254.873 384.852 254.18 385.045 253.665 385.432C253.15 385.811 252.809 386.288 252.642 386.864L248.165 386.5C248.392 385.439 248.839 384.523 249.506 383.75C250.172 382.97 251.032 382.371 252.085 381.955C253.146 381.53 254.373 381.318 255.767 381.318C256.737 381.318 257.665 381.432 258.551 381.659C259.445 381.886 260.237 382.239 260.926 382.716C261.623 383.193 262.172 383.807 262.574 384.557C262.975 385.299 263.176 386.189 263.176 387.227V399H258.585V396.58H258.449C258.169 397.125 257.794 397.606 257.324 398.023C256.854 398.432 256.29 398.754 255.631 398.989C254.972 399.216 254.21 399.33 253.347 399.33ZM254.733 395.989C255.445 395.989 256.074 395.848 256.619 395.568C257.165 395.28 257.593 394.894 257.903 394.409C258.214 393.924 258.369 393.375 258.369 392.761V390.909C258.218 391.008 258.009 391.098 257.744 391.182C257.487 391.258 257.195 391.33 256.869 391.398C256.544 391.458 256.218 391.515 255.892 391.568C255.566 391.614 255.271 391.655 255.006 391.693C254.438 391.777 253.941 391.909 253.517 392.091C253.093 392.273 252.763 392.519 252.528 392.83C252.294 393.133 252.176 393.511 252.176 393.966C252.176 394.625 252.415 395.129 252.892 395.477C253.377 395.818 253.991 395.989 254.733 395.989ZM271.773 375.727V399H266.932V375.727H271.773Z" fill="white"/>
<defs>
<clipPath id="clip0_424_651">
<rect width="100" height="73" fill="white" transform="translate(137 259)"/>
</clipPath>
</defs>
</svg>
