<svg width="174" height="149" viewBox="0 0 174 149" fill="none" xmlns="http://www.w3.org/2000/svg">
<g clip-path="url(#clip0_426_677)">
<rect width="100" height="73" transform="translate(37)" fill="#F7146B"/>
<path d="M53.0983 13.2678C52.7455 13.2677 52.3962 13.337 52.0703 13.4716C51.7444 13.6061 51.4484 13.8033 51.1992 14.0519C50.9499 14.3004 50.7524 14.5955 50.6178 14.9201C50.4833 15.2448 50.4143 15.5927 50.415 15.9439V42.6818C50.415 51.5546 57.6217 58.7484 66.5067 58.7484C75.3933 58.7484 82.5983 51.5546 82.5983 42.6818V23.9672C82.5983 22.4906 81.3967 21.2928 79.915 21.2928C79.5625 21.2932 79.2135 21.3628 78.888 21.4975C78.5625 21.6323 78.2669 21.8295 78.018 22.0781C77.7691 22.3266 77.5718 22.6215 77.4375 22.9459C77.3031 23.2704 77.2343 23.618 77.235 23.9689V42.5839C77.235 48.5732 72.4217 53.4028 66.5067 53.4028C60.5917 53.4028 55.7783 48.5749 55.7783 42.5855V15.9439C55.7783 14.4656 54.5783 13.2678 53.0983 13.2678ZM93.3233 2.53834e-07C90.1902 -0.000554601 87.125 0.908545 84.503 2.61594C81.8811 4.32334 79.8163 6.7549 78.5617 9.61277C77.785 11.3764 79.1217 13.349 81.055 13.349C81.5839 13.3453 82.1003 13.189 82.5417 12.8989C82.9831 12.6088 83.3304 12.1975 83.5417 11.7148C85.2317 7.96032 88.98 5.34725 93.32 5.34725C99.2433 5.34725 104.062 10.2117 104.062 16.1877V42.7216C104.062 43.4302 104.344 44.1099 104.848 44.611C105.351 45.112 106.034 45.3936 106.746 45.3936C107.458 45.3936 108.14 45.112 108.644 44.611C109.147 44.1099 109.43 43.4302 109.43 42.7216V16.0351C109.43 7.17889 102.217 2.53834e-07 93.32 2.53834e-07H93.3233Z" fill="white"/>
<path d="M93.2633 13.3557C91.78 13.3557 90.575 14.5535 90.575 16.0268V42.7116C90.575 51.5695 97.8 58.7467 106.712 58.7467C115.622 58.7467 122.847 51.5662 122.847 42.7116V40.0604C122.847 38.5871 121.642 37.3893 120.158 37.3893C118.675 37.3893 117.47 38.5871 117.47 40.0604V42.6154C117.47 48.5948 112.643 53.4576 106.712 53.4576C100.778 53.4576 95.9533 48.5915 95.9533 42.6154V16.0268C95.9533 14.5535 94.7483 13.3557 93.2633 13.3557ZM37 16.0368C37 7.18055 44.205 0 53.09 0C61.9767 0 69.1817 7.17889 69.1817 16.0368V42.7216C69.1572 43.4133 68.8639 44.0685 68.3637 44.5492C67.8634 45.0299 67.1953 45.2986 66.5 45.2986C65.8047 45.2986 65.1366 45.0299 64.6363 44.5492C64.1361 44.0685 63.8428 43.4133 63.8183 42.7216V16.1911C63.8183 10.215 59.005 5.34891 53.09 5.34891C47.175 5.34891 42.3633 10.2117 42.3633 16.1911V21.3608C42.3388 22.0525 42.0456 22.7077 41.5453 23.1884C41.0451 23.6691 40.377 23.9378 39.6817 23.9378C38.9864 23.9378 38.3182 23.6691 37.818 23.1884C37.3178 22.7077 37.0245 22.0525 37 21.3608V16.0351L37 16.0368ZM39.4917 32.042C38.075 32.1366 37 33.3809 37 34.8011V43.7817C37 51.2493 39.95 58.1345 44.7417 63.2528C45.2517 63.797 45.9417 64.0691 46.63 64.0691C47.32 64.0691 47.9633 63.8153 48.4733 63.3059C48.9513 62.8296 49.2252 62.1874 49.2377 61.5142C49.2501 60.8411 49 60.1893 48.54 59.6957C44.5528 55.4881 42.3345 49.921 42.34 44.1368V34.7065C42.34 33.2316 41.1417 32.0354 39.6683 32.0354L39.4917 32.042ZM126.79 0.00829545H126.608C126.241 0.0158134 125.875 0.0451764 125.512 0.0962273C125.495 0.0962273 125.483 0.0995455 125.467 0.102864C123.231 0.420346 121.185 1.53002 119.705 3.22816C118.224 4.92631 117.409 7.09898 117.408 9.34732V26.6964C117.408 28.1697 118.608 29.3659 120.088 29.3659C120.148 29.3659 120.21 29.3659 120.268 29.3609C121.692 29.2664 122.768 28.0254 122.768 26.6068V9.46345C122.768 7.31161 124.428 5.45675 126.59 5.35057C127.606 5.29762 128.604 5.63358 129.38 6.28961C129.42 6.32445 129.46 6.35598 129.502 6.39414C129.543 6.43395 129.59 6.47377 129.63 6.51691C129.678 6.56502 129.727 6.61645 129.775 6.66955C129.82 6.71932 129.863 6.76909 129.905 6.82052C129.948 6.87195 129.988 6.92505 130.028 6.97814C130.058 7.01795 130.088 7.05611 130.115 7.09593C130.168 7.17391 130.22 7.25355 130.265 7.33318C130.287 7.36802 130.305 7.40286 130.323 7.4377C130.373 7.52895 130.42 7.62186 130.467 7.71809L130.5 7.79773C130.604 8.03787 130.682 8.28808 130.733 8.54432C130.758 8.66045 130.777 8.77659 130.79 8.8977L130.795 8.96407C130.807 9.09016 130.815 9.21459 130.815 9.344V44.0655C130.815 45.2683 130.718 46.4512 130.532 47.6043C130.468 47.9864 130.488 48.3778 130.592 48.7513C130.695 49.1248 130.879 49.4715 131.13 49.7673C131.381 50.063 131.694 50.3009 132.047 50.4643C132.4 50.6276 132.784 50.7127 133.173 50.7134H133.185C134.502 50.7134 135.628 49.7578 135.833 48.4571C136.061 47.0136 136.174 45.5547 136.173 44.0937V9.34566C136.177 6.93482 135.24 4.61682 133.56 2.88018C131.991 1.2467 129.878 0.237633 127.617 0.0414773L127.515 0.0331818C127.331 0.0208405 127.146 0.0119904 126.962 0.00663636C126.907 0.00663636 126.85 0 126.793 0L126.79 0.00829545Z" fill="white"/>
<path d="M86.6233 56.0408C85.37 56.0408 84.19 56.6331 83.44 57.6335L83.4283 57.6501C79.2683 63.2031 72.63 66.8033 65.165 66.8033C62.9544 66.8046 60.7555 66.4838 58.6383 65.851C58.3883 65.7747 58.1383 65.7398 57.885 65.7398C57.19 65.7398 56.51 66.0169 56.0017 66.5196C54.5767 67.9431 55.1933 70.362 57.1183 70.9527C59.6667 71.7341 62.3683 72.1041 65.1567 72.1041H65.2233C69.5017 72.0958 73.55 71.1883 77.1767 69.4744C80.8028 67.7602 84.0208 65.2971 86.6167 62.2491C89.2553 65.3485 92.5426 67.8364 96.2483 69.5387C99.954 71.241 103.989 72.1166 108.07 72.1041C114.298 72.1041 120.05 70.1414 124.715 66.7253C124.865 66.6158 124.997 66.4947 125.112 66.3703L125.117 66.3636C125.412 66.1397 125.7 65.9124 125.983 65.6768L126.033 65.637C126.292 65.4213 126.543 65.2056 126.793 64.9833C126.838 64.9435 126.887 64.902 126.932 64.8588C127.142 64.6697 127.345 64.4772 127.548 64.2815L127.795 64.0492C127.968 63.88 128.137 63.7058 128.303 63.5316C128.393 63.4387 128.487 63.3474 128.578 63.2495L128.603 63.2246C129.142 62.6489 129.66 62.055 130.148 61.4361C131.535 59.6875 130.307 57.1175 128.075 57.1175H127.997C127.185 57.1175 126.425 57.4991 125.922 58.1379C125.524 58.6356 125.106 59.1172 124.668 59.5813L124.66 59.5879C124.02 60.2665 123.338 60.9052 122.622 61.5008L122.58 61.534C122.457 61.6369 122.33 61.7348 122.207 61.8376L122.123 61.904L121.767 62.1778L121.653 62.2607L121.308 62.5112C121.265 62.5444 121.222 62.5743 121.18 62.6025C121.067 62.6838 120.952 62.7617 120.838 62.8381L120.695 62.9343L120.353 63.1566L120.2 63.2528C120.088 63.3252 119.974 63.396 119.86 63.4652L119.698 63.5614L119.358 63.7605L119.192 63.8551C119.077 63.9215 118.962 63.9845 118.847 64.0459L118.68 64.1338L118.327 64.3196L118.165 64.3993C118.042 64.4607 117.922 64.5204 117.798 64.5785L117.665 64.6398C117.222 64.8456 116.768 65.038 116.31 65.2155L116.185 65.2653C116.075 65.3068 115.963 65.3483 115.852 65.3864C115.773 65.4135 115.695 65.4423 115.618 65.4727L115.312 65.5772L115.048 65.6652L114.748 65.7597L114.47 65.8443C114.372 65.8733 114.274 65.9009 114.175 65.9273L113.885 66.0086C113.788 66.0351 113.688 66.0584 113.592 66.0833C113.395 66.1299 113.198 66.1764 113.002 66.2226L112.693 66.289L112.405 66.3487C112.3 66.3703 112.192 66.3885 112.088 66.4068C111.993 66.4234 111.897 66.4416 111.8 66.4565L111.477 66.5063C111.382 66.5196 111.288 66.5362 111.193 66.5461C111.08 66.5627 110.967 66.576 110.857 66.5893L110.58 66.6225L110.23 66.6556L109.962 66.6805L109.59 66.7071C109.505 66.712 109.423 66.7203 109.337 66.7237C109.2 66.7303 109.06 66.7369 108.923 66.7403C108.85 66.7403 108.78 66.7469 108.708 66.7502C108.5 66.7552 108.287 66.7585 108.075 66.7585C100.62 66.7585 93.99 63.1699 89.8267 57.6368L89.8133 57.6617L89.7967 57.6368C89.4287 57.1436 88.9503 56.7426 88.3994 56.4656C87.8486 56.1885 87.2405 56.0431 86.6233 56.0408Z" fill="white"/>
</g>
<path d="M7.26136 140L0.602273 116.727H5.97727L9.82955 132.898H10.0227L14.2727 116.727H18.875L23.1136 132.932H23.3182L27.1705 116.727H32.5455L25.8864 140H21.0909L16.6591 124.784H16.4773L12.0568 140H7.26136ZM35.0881 140V122.545H39.929V140H35.0881ZM37.5199 120.295C36.8002 120.295 36.1828 120.057 35.6676 119.58C35.16 119.095 34.9062 118.515 34.9062 117.841C34.9062 117.174 35.16 116.602 35.6676 116.125C36.1828 115.64 36.8002 115.398 37.5199 115.398C38.2396 115.398 38.8532 115.64 39.3608 116.125C39.8759 116.602 40.1335 117.174 40.1335 117.841C40.1335 118.515 39.8759 119.095 39.3608 119.58C38.8532 120.057 38.2396 120.295 37.5199 120.295ZM48.6477 116.727V140H43.8068V116.727H48.6477ZM58.9574 140.284C57.6316 140.284 56.4309 139.943 55.3551 139.261C54.2869 138.572 53.4384 137.561 52.8097 136.227C52.1884 134.886 51.8778 133.242 51.8778 131.295C51.8778 129.295 52.1998 127.633 52.8438 126.307C53.4877 124.973 54.3438 123.977 55.4119 123.318C56.4877 122.652 57.6657 122.318 58.946 122.318C59.9233 122.318 60.7377 122.485 61.3892 122.818C62.0483 123.144 62.5786 123.553 62.9801 124.045C63.3892 124.53 63.6998 125.008 63.9119 125.477H64.0597V116.727H68.8892V140H64.1165V137.205H63.9119C63.6847 137.689 63.3627 138.17 62.946 138.648C62.5369 139.117 62.0028 139.508 61.3438 139.818C60.6922 140.129 59.8968 140.284 58.9574 140.284ZM60.4915 136.432C61.2718 136.432 61.9309 136.22 62.4688 135.795C63.0142 135.364 63.4309 134.761 63.7188 133.989C64.0142 133.216 64.1619 132.311 64.1619 131.273C64.1619 130.235 64.018 129.333 63.7301 128.568C63.4422 127.803 63.0256 127.212 62.4801 126.795C61.9347 126.379 61.2718 126.17 60.4915 126.17C59.696 126.17 59.0256 126.386 58.4801 126.818C57.9347 127.25 57.5218 127.848 57.2415 128.614C56.9612 129.379 56.821 130.265 56.821 131.273C56.821 132.288 56.9612 133.186 57.2415 133.966C57.5294 134.739 57.9422 135.345 58.4801 135.784C59.0256 136.216 59.696 136.432 60.4915 136.432ZM92.9915 123.42C92.9006 122.504 92.5104 121.792 91.821 121.284C91.1316 120.777 90.196 120.523 89.0142 120.523C88.2112 120.523 87.5331 120.636 86.9801 120.864C86.4271 121.083 86.0028 121.39 85.7074 121.784C85.4195 122.178 85.2756 122.625 85.2756 123.125C85.2604 123.542 85.3475 123.905 85.5369 124.216C85.7339 124.527 86.0028 124.795 86.3438 125.023C86.6847 125.242 87.0786 125.436 87.5256 125.602C87.9725 125.761 88.4498 125.898 88.9574 126.011L91.0483 126.511C92.0634 126.739 92.9953 127.042 93.8438 127.42C94.6922 127.799 95.4271 128.265 96.0483 128.818C96.6695 129.371 97.1506 130.023 97.4915 130.773C97.84 131.523 98.018 132.383 98.0256 133.352C98.018 134.777 97.6544 136.011 96.9347 137.057C96.2225 138.095 95.1922 138.902 93.8438 139.477C92.5028 140.045 90.8854 140.33 88.9915 140.33C87.1127 140.33 85.4763 140.042 84.0824 139.466C82.696 138.89 81.6127 138.038 80.8324 136.909C80.0597 135.773 79.6544 134.367 79.6165 132.693H84.3778C84.4309 133.473 84.6544 134.125 85.0483 134.648C85.4498 135.163 85.9839 135.553 86.6506 135.818C87.3248 136.076 88.0862 136.205 88.9347 136.205C89.768 136.205 90.4915 136.083 91.1051 135.841C91.7263 135.598 92.2074 135.261 92.5483 134.83C92.8892 134.398 93.0597 133.902 93.0597 133.341C93.0597 132.818 92.9044 132.379 92.5938 132.023C92.2907 131.667 91.8438 131.364 91.2528 131.114C90.6695 130.864 89.9536 130.636 89.1051 130.432L86.571 129.795C84.6089 129.318 83.0597 128.572 81.9233 127.557C80.7869 126.542 80.2225 125.174 80.2301 123.455C80.2225 122.045 80.5975 120.814 81.3551 119.761C82.1203 118.708 83.1695 117.886 84.5028 117.295C85.8362 116.705 87.3513 116.409 89.0483 116.409C90.7756 116.409 92.2831 116.705 93.571 117.295C94.8665 117.886 95.8741 118.708 96.5938 119.761C97.3134 120.814 97.6847 122.034 97.7074 123.42H92.9915ZM109.131 140.341C107.366 140.341 105.839 139.966 104.551 139.216C103.271 138.458 102.282 137.405 101.585 136.057C100.888 134.701 100.54 133.129 100.54 131.341C100.54 129.538 100.888 127.962 101.585 126.614C102.282 125.258 103.271 124.205 104.551 123.455C105.839 122.697 107.366 122.318 109.131 122.318C110.896 122.318 112.419 122.697 113.699 123.455C114.987 124.205 115.979 125.258 116.676 126.614C117.373 127.962 117.722 129.538 117.722 131.341C117.722 133.129 117.373 134.701 116.676 136.057C115.979 137.405 114.987 138.458 113.699 139.216C112.419 139.966 110.896 140.341 109.131 140.341ZM109.153 136.591C109.956 136.591 110.627 136.364 111.165 135.909C111.703 135.447 112.108 134.818 112.381 134.023C112.661 133.227 112.801 132.322 112.801 131.307C112.801 130.292 112.661 129.386 112.381 128.591C112.108 127.795 111.703 127.167 111.165 126.705C110.627 126.242 109.956 126.011 109.153 126.011C108.343 126.011 107.661 126.242 107.108 126.705C106.563 127.167 106.15 127.795 105.869 128.591C105.597 129.386 105.46 130.292 105.46 131.307C105.46 132.322 105.597 133.227 105.869 134.023C106.15 134.818 106.563 135.447 107.108 135.909C107.661 136.364 108.343 136.591 109.153 136.591ZM128.756 140.341C126.968 140.341 125.43 139.962 124.142 139.205C122.862 138.439 121.877 137.379 121.188 136.023C120.506 134.667 120.165 133.106 120.165 131.341C120.165 129.553 120.509 127.985 121.199 126.636C121.896 125.28 122.884 124.223 124.165 123.466C125.445 122.701 126.968 122.318 128.733 122.318C130.256 122.318 131.589 122.595 132.733 123.148C133.877 123.701 134.782 124.477 135.449 125.477C136.116 126.477 136.483 127.652 136.551 129H131.983C131.854 128.129 131.513 127.428 130.96 126.898C130.415 126.36 129.699 126.091 128.812 126.091C128.062 126.091 127.407 126.295 126.847 126.705C126.294 127.106 125.862 127.693 125.551 128.466C125.241 129.239 125.085 130.174 125.085 131.273C125.085 132.386 125.237 133.333 125.54 134.114C125.85 134.894 126.286 135.489 126.847 135.898C127.407 136.307 128.062 136.511 128.812 136.511C129.366 136.511 129.862 136.398 130.301 136.17C130.748 135.943 131.116 135.614 131.403 135.182C131.699 134.742 131.892 134.216 131.983 133.602H136.551C136.475 134.936 136.112 136.11 135.46 137.125C134.816 138.133 133.926 138.92 132.79 139.489C131.653 140.057 130.309 140.341 128.756 140.341ZM139.651 140V122.545H144.491V140H139.651ZM142.082 120.295C141.363 120.295 140.745 120.057 140.23 119.58C139.723 119.095 139.469 118.515 139.469 117.841C139.469 117.174 139.723 116.602 140.23 116.125C140.745 115.64 141.363 115.398 142.082 115.398C142.802 115.398 143.416 115.64 143.923 116.125C144.438 116.602 144.696 117.174 144.696 117.841C144.696 118.515 144.438 119.095 143.923 119.58C143.416 120.057 142.802 120.295 142.082 120.295ZM153.347 140.33C152.233 140.33 151.241 140.136 150.369 139.75C149.498 139.356 148.809 138.777 148.301 138.011C147.801 137.239 147.551 136.277 147.551 135.125C147.551 134.155 147.729 133.341 148.085 132.682C148.441 132.023 148.926 131.492 149.54 131.091C150.153 130.689 150.85 130.386 151.631 130.182C152.419 129.977 153.244 129.833 154.108 129.75C155.123 129.644 155.941 129.545 156.562 129.455C157.184 129.356 157.634 129.212 157.915 129.023C158.195 128.833 158.335 128.553 158.335 128.182V128.114C158.335 127.394 158.108 126.837 157.653 126.443C157.206 126.049 156.57 125.852 155.744 125.852C154.873 125.852 154.18 126.045 153.665 126.432C153.15 126.811 152.809 127.288 152.642 127.864L148.165 127.5C148.392 126.439 148.839 125.523 149.506 124.75C150.172 123.97 151.032 123.371 152.085 122.955C153.146 122.53 154.373 122.318 155.767 122.318C156.737 122.318 157.665 122.432 158.551 122.659C159.445 122.886 160.237 123.239 160.926 123.716C161.623 124.193 162.172 124.807 162.574 125.557C162.975 126.299 163.176 127.189 163.176 128.227V140H158.585V137.58H158.449C158.169 138.125 157.794 138.606 157.324 139.023C156.854 139.432 156.29 139.754 155.631 139.989C154.972 140.216 154.21 140.33 153.347 140.33ZM154.733 136.989C155.445 136.989 156.074 136.848 156.619 136.568C157.165 136.28 157.593 135.894 157.903 135.409C158.214 134.924 158.369 134.375 158.369 133.761V131.909C158.218 132.008 158.009 132.098 157.744 132.182C157.487 132.258 157.195 132.33 156.869 132.398C156.544 132.458 156.218 132.515 155.892 132.568C155.566 132.614 155.271 132.655 155.006 132.693C154.438 132.777 153.941 132.909 153.517 133.091C153.093 133.273 152.763 133.519 152.528 133.83C152.294 134.133 152.176 134.511 152.176 134.966C152.176 135.625 152.415 136.129 152.892 136.477C153.377 136.818 153.991 136.989 154.733 136.989ZM171.773 116.727V140H166.932V116.727H171.773Z" fill="white"/>
<defs>
<clipPath id="clip0_426_677">
<rect width="100" height="73" fill="white" transform="translate(37)"/>
</clipPath>
</defs>
</svg>
