<svg width="37" height="37" viewBox="0 0 37 37" fill="none" xmlns="http://www.w3.org/2000/svg">
<rect width="37" height="37" fill="#F7146B"/>
<path fill-rule="evenodd" clip-rule="evenodd" d="M1.54171 9.22326C1.54146 9.23848 1.54144 9.25369 1.54164 9.26888V27.75C1.54164 30.2973 3.61936 32.375 6.16664 32.375H30.8333C33.3806 32.375 35.4583 30.2973 35.4583 27.75V9.26906C35.4585 9.25373 35.4585 9.23838 35.4582 9.22304C35.4436 6.68808 33.3716 4.625 30.8333 4.625H6.16664C3.62828 4.625 1.55619 6.68821 1.54171 9.22326ZM4.78928 8.56234C5.04424 8.05817 5.56853 7.70833 6.16664 7.70833H30.8333C31.4314 7.70833 31.9557 8.05817 32.2107 8.56234L18.5 18.1598L4.78928 8.56234ZM32.375 12.211V27.75C32.375 28.5944 31.6777 29.2917 30.8333 29.2917H6.16664C5.32224 29.2917 4.62497 28.5944 4.62497 27.75V12.211L17.6159 21.3046C18.1467 21.6762 18.8532 21.6762 19.3841 21.3046L32.375 12.211Z" fill="white"/>
</svg>
