<svg width="16" height="16" viewBox="0 0 16 16" fill="none" xmlns="http://www.w3.org/2000/svg">
<g clip-path="url(#clip0_400_559)">
<path fill-rule="evenodd" clip-rule="evenodd" d="M15.1381 0.862029C15.2871 1.01102 15.3508 1.21298 15.3293 1.40729C15.3232 1.46176 15.3105 1.51563 15.2911 1.56756L10.6293 14.887C10.539 15.145 10.3003 15.3217 10.0272 15.3329C9.75408 15.344 9.50183 15.1873 9.39082 14.9375L6.82829 9.17184L1.0626 6.60931C0.812811 6.49829 0.656102 6.24604 0.667245 5.97292C0.678387 5.6998 0.855123 5.46116 1.11312 5.37086L14.4325 0.709067C14.4848 0.689505 14.539 0.676728 14.5938 0.670736C14.6341 0.666307 14.6745 0.66559 14.7145 0.668472C14.8688 0.679501 15.0201 0.74402 15.1381 0.862029ZM12.1296 2.92775L3.14074 6.07384L7.18571 7.8716L12.1296 2.92775ZM8.12852 8.81441L13.0724 3.87056L9.92629 12.8594L8.12852 8.81441Z" fill="white"/>
</g>
<defs>
<clipPath id="clip0_400_559">
<rect width="16" height="16" fill="white"/>
</clipPath>
</defs>
</svg>
