<svg width="25" height="24" viewBox="0 0 25 24" fill="none" xmlns="http://www.w3.org/2000/svg">
<path fill-rule="evenodd" clip-rule="evenodd" d="M12.5 1C10.6435 1 8.86299 1.7375 7.55024 3.05025C6.23748 4.36301 5.49999 6.14348 5.49999 8C5.49999 11.3527 4.78292 13.4346 4.12209 14.6461C3.7903 15.2544 3.46721 15.6535 3.24278 15.8904C3.13031 16.0091 3.04192 16.0878 2.98871 16.1322C2.96209 16.1544 2.94423 16.168 2.93653 16.1737L2.93368 16.1758C2.57519 16.4221 2.41655 16.8725 2.54289 17.2898C2.67059 17.7115 3.05932 18 3.49999 18H21.5C21.9407 18 22.3294 17.7115 22.4571 17.2898C22.5834 16.8725 22.4248 16.4221 22.0663 16.1758L22.0634 16.1737C22.0557 16.168 22.0379 16.1544 22.0113 16.1322C21.958 16.0878 21.8697 16.0091 21.7572 15.8904C21.5328 15.6535 21.2097 15.2544 20.8779 14.6461C20.2171 13.4346 19.5 11.3527 19.5 8C19.5 6.14349 18.7625 4.36301 17.4497 3.05025C16.137 1.7375 14.3565 1 12.5 1ZM19.1221 15.6039C19.1982 15.7434 19.2746 15.8753 19.3507 16H5.64931C5.7254 15.8753 5.80178 15.7434 5.87788 15.6039C6.71705 14.0654 7.49999 11.6473 7.49999 8C7.49999 6.67392 8.02677 5.40215 8.96445 4.46447C9.90213 3.52678 11.1739 3 12.5 3C13.8261 3 15.0978 3.52678 16.0355 4.46447C16.9732 5.40215 17.5 6.67392 17.5 8C17.5 11.6473 18.2829 14.0654 19.1221 15.6039Z" fill="#2D3648"/>
<path d="M11.635 20.4982C11.3579 20.0205 10.746 19.8579 10.2682 20.135C9.79051 20.4121 9.62789 21.024 9.90501 21.5018C10.1687 21.9564 10.5472 22.3337 11.0027 22.5961C11.4581 22.8584 11.9744 22.9965 12.5 22.9965C13.0256 22.9965 13.5419 22.8584 13.9973 22.5961C14.4528 22.3337 14.8313 21.9564 15.095 21.5018C15.3721 21.024 15.2095 20.4121 14.7318 20.135C14.2541 19.8579 13.6421 20.0205 13.365 20.4982C13.2771 20.6498 13.1509 20.7756 12.9991 20.863C12.8473 20.9504 12.6752 20.9965 12.5 20.9965C12.3248 20.9965 12.1527 20.9504 12.0009 20.863C11.8491 20.7756 11.7229 20.6498 11.635 20.4982Z" fill="#2D3648"/>
</svg>
