<svg xmlns:xlink="http://www.w3.org/1999/xlink" class="formation__card-icon" xmlns="http://www.w3.org/2000/svg" width="60" height="44" viewBox="0 0 60 44" fill="none"><path fill="#1D1D1B" d="M9.659 7.997a1.61 1.61 0 0 0-1.61 1.613v16.116c0 5.348 4.324 9.684 9.655 9.684 5.332 0 9.655-4.336 9.655-9.684v-11.28c0-.89-.721-1.612-1.61-1.612a1.61 1.61 0 0 0-1.608 1.613v11.22c0 3.61-2.888 6.521-6.437 6.521-3.549 0-6.437-2.91-6.437-6.52V9.61c0-.891-.72-1.613-1.608-1.613ZM33.794 0a9.664 9.664 0 0 0-8.857 5.794c-.466 1.063.336 2.252 1.496 2.252a1.64 1.64 0 0 0 1.492-.985c1.014-2.263 3.263-3.838 5.867-3.838 3.554 0 6.445 2.932 6.445 6.534V25.75a1.61 1.61 0 0 0 3.221 0V9.665C43.458 4.327 39.13 0 33.792 0h.002Z"></path><path fill="#1D1D1B" d="M33.758 8.05c-.89 0-1.613.722-1.613 1.61v16.084c0 5.339 4.335 9.665 9.682 9.665 5.346 0 9.681-4.328 9.681-9.665v-1.598c0-.888-.723-1.61-1.613-1.61s-1.613.722-1.613 1.61v1.54c0 3.604-2.896 6.535-6.455 6.535-3.56 0-6.455-2.933-6.455-6.535V9.66c0-.888-.723-1.61-1.614-1.61ZM0 9.666C0 4.328 4.323 0 9.654 0c5.332 0 9.655 4.327 9.655 9.666V25.75a1.61 1.61 0 0 1-3.218 0V9.759c0-3.602-2.888-6.535-6.437-6.535-3.549 0-6.436 2.931-6.436 6.535v3.116a1.61 1.61 0 0 1-3.218 0v-3.21ZM1.495 19.313C.645 19.37 0 20.12 0 20.976v5.413c0 4.501 1.77 8.651 4.645 11.736.306.328.72.492 1.133.492.414 0 .8-.153 1.106-.46a1.569 1.569 0 0 0 .04-2.176 13.648 13.648 0 0 1-3.72-9.378v-5.684c0-.889-.719-1.61-1.603-1.61l-.106.004ZM53.874.005h-.109a5.523 5.523 0 0 0-.658.053c-.01 0-.017.002-.027.004a5.63 5.63 0 0 0-4.835 5.572v10.457c0 .888.72 1.609 1.608 1.609.036 0 .073 0 .108-.003.854-.057 1.5-.805 1.5-1.66V5.704c0-1.297.996-2.415 2.293-2.479a2.392 2.392 0 0 1 1.674.566c.024.021.048.04.073.063.025.024.053.048.077.074.029.029.058.06.087.092.027.03.053.06.078.091.026.031.05.063.074.095.018.024.036.047.052.071.032.047.063.095.09.143.013.021.024.042.035.063.03.055.058.111.086.169l.02.048a2.272 2.272 0 0 1 .14.45c.015.07.026.14.034.213l.003.04c.007.076.012.151.012.229V26.56c0 .725-.058 1.438-.17 2.133a1.61 1.61 0 0 0 1.585 1.874h.007c.79 0 1.466-.576 1.589-1.36a16.89 16.89 0 0 0 .204-2.63V5.633a5.607 5.607 0 0 0-1.568-3.897A5.607 5.607 0 0 0 54.37.025L54.309.02a8.735 8.735 0 0 0-.332-.016c-.033 0-.067-.004-.101-.004l-.002.005Z"></path><path fill="#1D1D1B" d="M29.774 33.778c-.752 0-1.46.357-1.91.96l-.007.01c-2.496 3.347-6.479 5.517-10.958 5.517a13.59 13.59 0 0 1-3.916-.574c-.15-.046-.3-.067-.452-.067-.417 0-.825.167-1.13.47-.855.858-.485 2.316.67 2.672 1.529.471 3.15.694 4.823.694h.04c2.567-.005 4.996-.552 7.172-1.585a16.969 16.969 0 0 0 5.664-4.355 16.805 16.805 0 0 0 12.872 5.94c3.737 0 7.188-1.183 9.987-3.242.09-.066.169-.139.238-.214L52.87 40c.177-.135.35-.272.52-.414l.03-.024c.155-.13.306-.26.456-.394.027-.024.056-.049.083-.075.126-.114.248-.23.37-.348l.148-.14c.104-.102.205-.207.305-.312.054-.056.11-.111.165-.17l.015-.015c.323-.347.634-.705.927-1.078.832-1.054.095-2.603-1.244-2.603h-.047c-.487 0-.943.23-1.245.615a14.213 14.213 0 0 1-.752.87l-.005.004c-.384.409-.793.794-1.223 1.153l-.025.02c-.074.062-.15.121-.224.183l-.05.04-.214.165-.068.05-.207.151c-.026.02-.052.038-.077.055-.068.049-.137.096-.205.142l-.086.058-.205.134-.092.058a8.773 8.773 0 0 1-.204.128l-.097.058-.204.12-.1.057c-.069.04-.138.078-.207.115l-.1.053-.212.112-.097.048c-.074.037-.146.073-.22.108l-.08.037c-.266.124-.538.24-.813.347l-.075.03c-.066.025-.133.05-.2.073a3.534 3.534 0 0 0-.14.052l-.184.063-.158.053-.18.057-.167.051a7.01 7.01 0 0 1-.177.05l-.174.049c-.058.016-.118.03-.176.045a153.426 153.426 0 0 1-.354.084l-.185.04-.173.036c-.063.013-.128.024-.19.035-.057.01-.115.021-.173.03l-.194.03c-.057.008-.113.018-.17.024-.068.01-.136.018-.202.026l-.166.02-.21.02-.161.015-.223.016c-.051.003-.1.008-.152.01-.082.004-.166.008-.248.01-.044 0-.086.004-.129.006-.125.003-.253.005-.38.005-4.473 0-8.451-2.163-10.949-5.498l-.008.015-.01-.015a2.383 2.383 0 0 0-1.904-.962Z"></path></svg>