<svg width="34" height="34" viewBox="0 0 34 34" fill="none" xmlns="http://www.w3.org/2000/svg">
<path d="M10.4834 18.7001C11.1073 18.2321 11.9917 18.3567 12.4623 18.9775L12.4688 18.9859C12.4773 18.9966 12.4933 19.0165 12.5167 19.0444C12.5637 19.1004 12.6398 19.1877 12.7436 19.2959C12.9522 19.5137 13.2658 19.8091 13.6718 20.1044C14.4893 20.6989 15.6195 21.2501 17 21.2501C18.3805 21.2501 19.5108 20.6989 20.3283 20.1044C20.7343 19.8091 21.0478 19.5137 21.2565 19.2959C21.3603 19.1877 21.4364 19.1004 21.4834 19.0444C21.5068 19.0165 21.5228 18.9966 21.5312 18.9859L21.5378 18.9775C22.0084 18.3567 22.8928 18.2321 23.5167 18.7001C24.1426 19.1695 24.2695 20.0575 23.8 20.6834L22.6667 19.8334C23.8 20.6834 23.8004 20.6829 23.8 20.6834L23.7986 20.6853L23.797 20.6875L23.7931 20.6926L23.7829 20.706L23.7527 20.7446C23.7283 20.7754 23.6952 20.8163 23.6536 20.8659C23.5705 20.9649 23.453 21.099 23.3022 21.2563C23.0017 21.5698 22.5627 21.9827 21.9947 22.3958C20.8643 23.2179 19.1612 24.0834 17 24.0834C14.8389 24.0834 13.1358 23.2179 12.0053 22.3958C11.4374 21.9827 10.9984 21.5698 10.6979 21.2563C10.5471 21.099 10.4296 20.9649 10.3465 20.8659C10.3049 20.8163 10.2718 20.7754 10.2474 20.7446L10.2172 20.706L10.207 20.6926L10.2031 20.6875L10.2015 20.6853C10.2011 20.6849 10.2 20.6834 11.3334 19.8334L10.2 20.6834C9.7306 20.0575 9.85745 19.1695 10.4834 18.7001Z" fill="#1D1D1B"/>
<path d="M11.3333 12.7501C11.3333 11.9677 11.9676 11.3334 12.75 11.3334H12.7641C13.5465 11.3334 14.1808 11.9677 14.1808 12.7501C14.1808 13.5325 13.5465 14.1667 12.7641 14.1667H12.75C11.9676 14.1667 11.3333 13.5325 11.3333 12.7501Z" fill="#1D1D1B"/>
<path d="M21.25 11.3334C20.4676 11.3334 19.8333 11.9677 19.8333 12.7501C19.8333 13.5325 20.4676 14.1667 21.25 14.1667H21.2641C22.0465 14.1667 22.6808 13.5325 22.6808 12.7501C22.6808 11.9677 22.0465 11.3334 21.2641 11.3334H21.25Z" fill="#1D1D1B"/>
<path fill-rule="evenodd" clip-rule="evenodd" d="M17 1.41675C8.39352 1.41675 1.41663 8.39364 1.41663 17.0001C1.41663 25.6065 8.39352 32.5834 17 32.5834C25.6064 32.5834 32.5833 25.6065 32.5833 17.0001C32.5833 8.39364 25.6064 1.41675 17 1.41675ZM4.24996 17.0001C4.24996 9.95845 9.95833 4.25008 17 4.25008C24.0416 4.25008 29.75 9.95845 29.75 17.0001C29.75 24.0417 24.0416 29.7501 17 29.7501C9.95833 29.7501 4.24996 24.0417 4.24996 17.0001Z" fill="#1D1D1B"/>
</svg>
