<svg width="25" height="24" viewBox="0 0 25 24" fill="none" xmlns="http://www.w3.org/2000/svg">
<path fill-rule="evenodd" clip-rule="evenodd" d="M4.33334 11C4.33334 7.13401 7.46735 4 11.3333 4C15.1993 4 18.3333 7.13401 18.3333 11C18.3333 12.8858 17.5876 14.5974 16.375 15.8561C16.3407 15.8825 16.3076 15.9114 16.2761 15.9429C16.2447 15.9744 16.2157 16.0074 16.1893 16.0418C14.9307 17.2543 13.2191 18 11.3333 18C7.46735 18 4.33334 14.866 4.33334 11ZM16.951 18.0319C15.4113 19.2635 13.4583 20 11.3333 20C6.36278 20 2.33334 15.9706 2.33334 11C2.33334 6.02944 6.36278 2 11.3333 2C16.3039 2 20.3333 6.02944 20.3333 11C20.3333 13.125 19.5969 15.0781 18.3652 16.6177L22.0404 20.2929C22.4309 20.6834 22.4309 21.3166 22.0404 21.7071C21.6498 22.0976 21.0167 22.0976 20.6261 21.7071L16.951 18.0319Z" fill="#2D3648"/>
</svg>
