<svg width="37" height="37" viewBox="0 0 37 37" fill="none" xmlns="http://www.w3.org/2000/svg">
<path fill-rule="evenodd" clip-rule="evenodd" d="M18.5 3.08331C14.2428 3.08331 10.7917 6.53445 10.7917 10.7916C10.7917 15.0488 14.2428 18.5 18.5 18.5C22.7572 18.5 26.2083 15.0488 26.2083 10.7916C26.2083 6.53445 22.7572 3.08331 18.5 3.08331ZM13.875 10.7916C13.875 8.23733 15.9457 6.16665 18.5 6.16665C21.0543 6.16665 23.125 8.23733 23.125 10.7916C23.125 13.346 21.0543 15.4166 18.5 15.4166C15.9457 15.4166 13.875 13.346 13.875 10.7916Z" fill="#F7146B"/>
<path d="M12.3333 21.5833C10.289 21.5833 8.32831 22.3954 6.88272 23.841C5.43713 25.2866 4.625 27.2473 4.625 29.2916V32.375C4.625 33.2264 5.31523 33.9166 6.16667 33.9166C7.01811 33.9166 7.70833 33.2264 7.70833 32.375V29.2916C7.70833 28.065 8.19561 26.8886 9.06296 26.0213C9.93032 25.1539 11.1067 24.6666 12.3333 24.6666H24.6667C25.8933 24.6666 27.0697 25.1539 27.937 26.0213C28.8044 26.8886 29.2917 28.065 29.2917 29.2916V32.375C29.2917 33.2264 29.9819 33.9166 30.8333 33.9166C31.6848 33.9166 32.375 33.2264 32.375 32.375V29.2916C32.375 27.2473 31.5629 25.2866 30.1173 23.841C28.6717 22.3954 26.711 21.5833 24.6667 21.5833H12.3333Z" fill="#F7146B"/>
</svg>
