<svg width="25" height="24" viewBox="0 0 25 24" fill="none" xmlns="http://www.w3.org/2000/svg">
<path fill-rule="evenodd" clip-rule="evenodd" d="M12.6667 1C10.8102 1 9.02968 1.7375 7.71693 3.05025C6.40417 4.36301 5.66667 6.14348 5.66667 8C5.66667 11.3527 4.94961 13.4346 4.28878 14.6461C3.95698 15.2544 3.6339 15.6535 3.40947 15.8904C3.297 16.0091 3.20861 16.0878 3.1554 16.1322C3.12877 16.1544 3.11092 16.168 3.10322 16.1737L3.10036 16.1758C2.74188 16.4221 2.58324 16.8725 2.70958 17.2898C2.83728 17.7115 3.22601 18 3.66667 18H21.6667C22.1073 18 22.4961 17.7115 22.6238 17.2898C22.7501 16.8725 22.5915 16.4221 22.233 16.1758L22.2301 16.1737C22.2224 16.168 22.2046 16.1544 22.178 16.1322C22.1247 16.0878 22.0364 16.0091 21.9239 15.8904C21.6994 15.6535 21.3764 15.2544 21.0446 14.6461C20.3837 13.4346 19.6667 11.3527 19.6667 8C19.6667 6.14349 18.9292 4.36301 17.6164 3.05025C16.3037 1.7375 14.5232 1 12.6667 1ZM19.2888 15.6039C19.3649 15.7434 19.4413 15.8753 19.5173 16H5.816C5.89208 15.8753 5.96847 15.7434 6.04457 15.6039C6.88374 14.0654 7.66667 11.6473 7.66667 8C7.66667 6.67392 8.19346 5.40215 9.13114 4.46447C10.0688 3.52678 11.3406 3 12.6667 3C13.9928 3 15.2645 3.52678 16.2022 4.46447C17.1399 5.40215 17.6667 6.67392 17.6667 8C17.6667 11.6473 18.4496 14.0654 19.2888 15.6039Z" fill="#2D3648"/>
<path d="M11.8017 20.4982C11.5246 20.0205 10.9126 19.8579 10.4349 20.135C9.9572 20.4121 9.79457 21.024 10.0717 21.5018C10.3354 21.9564 10.7139 22.3337 11.1694 22.5961C11.6248 22.8584 12.1411 22.9965 12.6667 22.9965C13.1923 22.9965 13.7086 22.8584 14.164 22.5961C14.6195 22.3337 14.998 21.9564 15.2617 21.5018C15.5388 21.024 15.3762 20.4121 14.8985 20.135C14.4207 19.8579 13.8088 20.0205 13.5317 20.4982C13.4438 20.6498 13.3176 20.7756 13.1658 20.863C13.014 20.9504 12.8419 20.9965 12.6667 20.9965C12.4915 20.9965 12.3194 20.9504 12.1676 20.863C12.0158 20.7756 11.8896 20.6498 11.8017 20.4982Z" fill="#2D3648"/>
</svg>
