<svg width="25" height="24" viewBox="0 0 25 24" fill="none" xmlns="http://www.w3.org/2000/svg">
<path fill-rule="evenodd" clip-rule="evenodd" d="M4.75 11C4.75 7.13401 7.88401 4 11.75 4C15.616 4 18.75 7.13401 18.75 11C18.75 12.8858 18.0043 14.5974 16.7917 15.8561C16.7573 15.8825 16.7243 15.9114 16.6928 15.9429C16.6613 15.9744 16.6324 16.0074 16.606 16.0418C15.3473 17.2543 13.6357 18 11.75 18C7.88401 18 4.75 14.866 4.75 11ZM17.3676 18.0319C15.828 19.2635 13.875 20 11.75 20C6.77944 20 2.75 15.9706 2.75 11C2.75 6.02944 6.77944 2 11.75 2C16.7206 2 20.75 6.02944 20.75 11C20.75 13.125 20.0135 15.0781 18.7819 16.6177L22.457 20.2929C22.8475 20.6834 22.8475 21.3166 22.457 21.7071C22.0665 22.0976 21.4333 22.0976 21.0428 21.7071L17.3676 18.0319Z" fill="#2D3648"/>
</svg>
