<svg width="34" height="34" viewBox="0 0 34 34" fill="none" xmlns="http://www.w3.org/2000/svg">
<path fill-rule="evenodd" clip-rule="evenodd" d="M12.75 2.83325C8.83798 2.83325 5.66667 6.00457 5.66667 9.91659C5.66667 13.8286 8.83798 16.9999 12.75 16.9999C16.662 16.9999 19.8333 13.8286 19.8333 9.91659C19.8333 6.00457 16.662 2.83325 12.75 2.83325ZM8.5 9.91659C8.5 7.56937 10.4028 5.66659 12.75 5.66659C15.0972 5.66659 17 7.56937 17 9.91659C17 12.2638 15.0972 14.1666 12.75 14.1666C10.4028 14.1666 8.5 12.2638 8.5 9.91659Z" fill="#1D1D1B"/>
<path d="M7.08333 19.8333C5.20472 19.8333 3.40304 20.5795 2.07466 21.9079C0.746278 23.2363 0 25.038 0 26.9166V29.7499C0 30.5323 0.634263 31.1666 1.41667 31.1666C2.19907 31.1666 2.83333 30.5323 2.83333 29.7499V26.9166C2.83333 25.7894 3.2811 24.7084 4.07813 23.9114C4.87516 23.1144 5.95616 22.6666 7.08333 22.6666H18.4167C19.5438 22.6666 20.6248 23.1144 21.4219 23.9114C22.2189 24.7084 22.6667 25.7894 22.6667 26.9166V29.7499C22.6667 30.5323 23.3009 31.1666 24.0833 31.1666C24.8657 31.1666 25.5 30.5323 25.5 29.7499V26.9166C25.5 25.038 24.7537 23.2363 23.4253 21.9079C22.097 20.5795 20.2953 19.8333 18.4167 19.8333H7.08333Z" fill="#1D1D1B"/>
<path d="M26.9617 21.0799C27.1573 20.3224 27.9299 19.8668 28.6875 20.0624C30.2071 20.4548 31.5534 21.3407 32.5149 22.5811C33.4765 23.8215 33.9988 25.3461 34 26.9155V29.7499C34 30.5323 33.3657 31.1666 32.5833 31.1666C31.8009 31.1666 31.1667 30.5323 31.1667 29.7499V26.9176C31.1659 25.9761 30.8525 25.0611 30.2756 24.317C29.6987 23.5727 28.8909 23.0412 27.9792 22.8058C27.2216 22.6102 26.766 21.8375 26.9617 21.0799Z" fill="#1D1D1B"/>
<path d="M23.0181 3.0617C22.2601 2.86763 21.4883 3.32475 21.2943 4.0827C21.1002 4.84066 21.5573 5.61242 22.3153 5.80649C23.2295 6.04056 24.0398 6.57223 24.6184 7.31769C25.197 8.06315 25.5111 8.98 25.5111 9.92368C25.5111 10.8674 25.197 11.7842 24.6184 12.5297C24.0398 13.2751 23.2295 13.8068 22.3153 14.0409C21.5573 14.2349 21.1002 15.0067 21.2943 15.7646C21.4883 16.5226 22.2601 16.9797 23.0181 16.7857C24.5417 16.3955 25.8922 15.5094 26.8566 14.267C27.821 13.0245 28.3444 11.4965 28.3444 9.92368C28.3444 8.35087 27.821 6.8228 26.8566 5.58037C25.8922 4.33794 24.5417 3.45181 23.0181 3.0617Z" fill="#1D1D1B"/>
</svg>
