<svg width="34" height="34" viewBox="0 0 34 34" fill="none" xmlns="http://www.w3.org/2000/svg">
<g clip-path="url(#clip0_438_1537)">
<path fill-rule="evenodd" clip-rule="evenodd" d="M17 11.3333C13.8704 11.3333 11.3333 13.8704 11.3333 17C11.3333 20.1296 13.8704 22.6667 17 22.6667C20.1296 22.6667 22.6667 20.1296 22.6667 17C22.6667 13.8704 20.1296 11.3333 17 11.3333ZM14.1667 17C14.1667 15.4352 15.4352 14.1667 17 14.1667C18.5648 14.1667 19.8333 15.4352 19.8333 17C19.8333 18.5648 18.5648 19.8333 17 19.8333C15.4352 19.8333 14.1667 18.5648 14.1667 17Z" fill="#1D1D1B"/>
<path fill-rule="evenodd" clip-rule="evenodd" d="M28.7794 21.822L27.4833 21.25L28.7854 21.8081C28.8562 21.643 28.9737 21.5022 29.1234 21.4031C29.2725 21.3043 29.4472 21.2511 29.626 21.25H29.75C30.8772 21.25 31.9582 20.8022 32.7552 20.0052C33.5522 19.2082 34 18.1272 34 17C34 15.8728 33.5522 14.7918 32.7552 13.9948C31.9582 13.1978 30.8772 12.75 29.75 12.75H29.5127C29.3339 12.7489 29.1592 12.6957 29.0101 12.5969C28.9096 12.5304 28.8236 12.4451 28.7566 12.3463C28.7364 12.2498 28.7061 12.1554 28.6661 12.0647C28.5918 11.8963 28.5696 11.7096 28.6024 11.5286C28.6349 11.3495 28.7197 11.1841 28.846 11.0533L28.9237 10.9756C29.3186 10.581 29.6324 10.1119 29.8462 9.59625C30.0601 9.08031 30.1701 8.52727 30.1701 7.96875C30.1701 7.41023 30.0601 6.85719 29.8462 6.34125C29.6325 5.8258 29.3194 5.35747 28.9248 4.96299C28.5301 4.56784 28.0614 4.25436 27.5454 4.04049C27.0295 3.82661 26.4764 3.71652 25.9179 3.71652C25.3594 3.71652 24.8064 3.82661 24.2904 4.04049C23.7745 4.25436 23.3058 4.56784 22.911 4.96299L22.8334 5.04066C22.7025 5.16699 22.5371 5.25177 22.3581 5.28423C22.177 5.31706 21.9903 5.2949 21.822 5.22061L21.8081 5.21455C21.643 5.14381 21.5022 5.02634 21.4031 4.87661C21.3043 4.72747 21.2511 4.5528 21.25 4.37396V4.25C21.25 3.12283 20.8022 2.04183 20.0052 1.2448C19.2082 0.447767 18.1272 0 17 0C15.8728 0 14.7918 0.447767 13.9948 1.2448C13.1978 2.04183 12.75 3.12283 12.75 4.25V4.48729C12.7489 4.66614 12.6957 4.84081 12.5969 4.98995C12.5304 5.09041 12.4451 5.17635 12.3463 5.2434C12.2498 5.26361 12.1554 5.2939 12.0647 5.33394C11.8963 5.40823 11.7096 5.43039 11.5286 5.39757C11.3495 5.3651 11.1841 5.28031 11.0533 5.15397L10.9756 5.07632C10.5809 4.68117 10.1122 4.3677 9.59625 4.15382C9.0803 3.93994 8.52727 3.82985 7.96875 3.82985C7.41023 3.82985 6.85719 3.93994 6.34125 4.15382C5.82555 4.3676 5.35703 4.68088 4.96243 5.07577C4.56754 5.47036 4.25426 5.93889 4.04049 6.45459C3.82661 6.97053 3.71652 7.52357 3.71652 8.08208C3.71652 8.6406 3.82661 9.19364 4.04049 9.70958C4.25436 10.2255 4.56784 10.6942 4.96299 11.089L5.04064 11.1666C5.16698 11.2975 5.25177 11.4628 5.28423 11.6419C5.31706 11.823 5.2949 12.0097 5.22061 12.178C5.20856 12.2053 5.19738 12.233 5.18707 12.261C5.12329 12.4344 5.00882 12.5846 4.85853 12.6921C4.71171 12.7971 4.53735 12.8566 4.35715 12.8633H4.25C3.12283 12.8633 2.04183 13.3111 1.2448 14.1081C0.447767 14.9052 0 15.9862 0 17.1133C0 18.2405 0.447767 19.3215 1.2448 20.1185C2.04183 20.9156 3.12283 21.3633 4.25 21.3633H4.48729C4.66614 21.3645 4.84081 21.4176 4.98995 21.5164C5.13968 21.6156 5.25714 21.7563 5.32788 21.9214L5.33394 21.9353C5.40823 22.1037 5.43039 22.2904 5.39757 22.4714C5.3651 22.6505 5.28032 22.8159 5.15399 22.9467L5.07632 23.0244C4.68117 23.4191 4.3677 23.8878 4.15382 24.4038C3.93994 24.9197 3.82985 25.4727 3.82985 26.0312C3.82985 26.5898 3.93994 27.1428 4.15382 27.6587C4.3677 28.1747 4.68117 28.6434 5.07632 29.0381C5.4708 29.4328 5.93913 29.7458 6.45459 29.9595C6.97053 30.1734 7.52357 30.2835 8.08208 30.2835C8.6406 30.2835 9.19364 30.1734 9.70958 29.9595C10.2253 29.7457 10.6938 29.4325 11.0884 29.0376L11.1666 28.9594C11.2974 28.833 11.4628 28.7482 11.6419 28.7158C11.823 28.6829 12.0097 28.7051 12.178 28.7794C12.2053 28.7914 12.233 28.8026 12.261 28.8129C12.4344 28.8767 12.5846 28.9912 12.6921 29.1415C12.7971 29.2883 12.8566 29.4626 12.8633 29.6428V29.75C12.8633 30.8772 13.3111 31.9582 14.1081 32.7552C14.9052 33.5522 15.9862 34 17.1133 34C18.2405 34 19.3215 33.5522 20.1185 32.7552C20.9156 31.9582 21.3633 30.8772 21.3633 29.75V29.5127C21.3645 29.3339 21.4176 29.1592 21.5164 29.0101C21.6156 28.8603 21.7563 28.7429 21.9214 28.6721L21.9353 28.6661C22.1037 28.5918 22.2904 28.5696 22.4714 28.6024C22.6505 28.6349 22.8158 28.7197 22.9467 28.846L23.0244 28.9237C23.419 29.3186 23.8881 29.6324 24.4038 29.8462C24.9197 30.0601 25.4727 30.1701 26.0312 30.1701C26.5898 30.1701 27.1428 30.0601 27.6587 29.8462C28.1744 29.6324 28.643 29.3191 29.0376 28.9242C29.4325 28.5296 29.7457 28.0611 29.9595 27.5454C30.1734 27.0295 30.2835 26.4764 30.2835 25.9179C30.2835 25.3594 30.1734 24.8064 29.9595 24.2904C29.7457 23.7747 29.4325 23.3062 29.0376 22.9116L28.9593 22.8333C28.833 22.7025 28.7482 22.5371 28.7158 22.3581C28.6829 22.177 28.7051 21.9903 28.7794 21.822ZM15.9983 3.24827C16.2639 2.98259 16.6243 2.83333 17 2.83333C17.3757 2.83333 17.7361 2.98259 18.0017 3.24827C18.2674 3.51394 18.4167 3.87428 18.4167 4.25V4.3775L18.4167 4.38315C18.4196 5.1153 18.6365 5.83061 19.0408 6.44104C19.4436 7.04934 20.015 7.52703 20.6849 7.81577C21.3694 8.1162 22.128 8.20549 22.8636 8.07211C23.6017 7.93828 24.2827 7.58642 24.819 7.06189L24.8301 7.0509L24.9151 6.9659C25.0466 6.83418 25.2034 6.72914 25.3754 6.65784C25.5474 6.58655 25.7317 6.54985 25.9179 6.54985C26.1041 6.54985 26.2884 6.58655 26.4604 6.65784C26.6324 6.72913 26.7886 6.83363 26.9202 6.96534L26.9213 6.96646C27.053 7.09803 27.1575 7.25427 27.2288 7.42625C27.3001 7.59823 27.3368 7.78258 27.3368 7.96875C27.3368 8.15492 27.3001 8.33927 27.2288 8.51125C27.1575 8.68323 27.053 8.83947 26.9213 8.97104L26.8358 9.0566L26.8248 9.06771C26.3002 9.60394 25.9484 10.285 25.8146 11.0231C25.6984 11.6639 25.7511 12.3221 25.9653 12.9336C25.9821 13.0623 26.0165 13.1883 26.0679 13.3081C26.3563 13.981 26.8352 14.5549 27.4456 14.9592C28.0561 15.3635 28.7714 15.5804 29.5035 15.5833L29.5092 15.5833H29.75C30.1257 15.5833 30.4861 15.7326 30.7517 15.9983C31.0174 16.2639 31.1667 16.6243 31.1667 17C31.1667 17.3757 31.0174 17.7361 30.7517 18.0017C30.4861 18.2674 30.1257 18.4167 29.75 18.4167L29.6225 18.4167L29.6168 18.4167C28.8847 18.4196 28.1694 18.6365 27.559 19.0408C26.9506 19.4437 26.4729 20.0151 26.1842 20.6851C25.8838 21.3695 25.7945 22.128 25.9279 22.8636C26.0617 23.6017 26.4136 24.2827 26.9381 24.819L26.9491 24.8301L27.0341 24.9151C27.1658 25.0466 27.2709 25.2034 27.3422 25.3754C27.4135 25.5474 27.4501 25.7317 27.4501 25.9179C27.4501 26.1041 27.4135 26.2884 27.3422 26.4604C27.2709 26.6324 27.1664 26.7886 27.0347 26.9202L27.0335 26.9213C26.902 27.053 26.7457 27.1575 26.5737 27.2288C26.4018 27.3001 26.2174 27.3368 26.0312 27.3368C25.8451 27.3368 25.6607 27.3001 25.4888 27.2288C25.3168 27.1575 25.1605 27.053 25.029 26.9213L24.9434 26.8358L24.9323 26.8248C24.3961 26.3002 23.715 25.9484 22.9769 25.8146C22.2414 25.6812 21.4828 25.7705 20.7984 26.0708C20.1284 26.3596 19.557 26.8373 19.1541 27.4456C18.7499 28.0561 18.5329 28.7714 18.53 29.5035L18.53 29.5092V29.75C18.53 30.1257 18.3807 30.4861 18.1151 30.7517C17.8494 31.0174 17.4891 31.1667 17.1133 31.1667C16.7376 31.1667 16.3773 31.0174 16.1116 30.7517C15.8459 30.4861 15.6967 30.1257 15.6967 29.75V29.6225L15.6963 29.5894C15.6787 28.8363 15.4349 28.1059 14.9967 27.4932C14.5671 26.8926 13.9702 26.4323 13.2809 26.1694C12.6054 25.8809 11.8598 25.7967 11.1364 25.9279C10.3983 26.0617 9.71727 26.4136 9.18104 26.9381L9.16992 26.9491L9.08492 27.0341C8.95335 27.1658 8.79657 27.2709 8.62458 27.3422C8.4526 27.4135 8.26825 27.4501 8.08208 27.4501C7.89591 27.4501 7.71157 27.4135 7.53958 27.3422C7.3676 27.2709 7.21136 27.1664 7.07979 27.0347L7.07868 27.0335C6.94696 26.902 6.84247 26.7457 6.77118 26.5737C6.69988 26.4018 6.66319 26.2174 6.66319 26.0312C6.66319 25.8451 6.69988 25.6607 6.77118 25.4888C6.84247 25.3168 6.94696 25.1605 7.07868 25.029L7.16423 24.9434L7.17522 24.9323C7.69975 24.3961 8.05162 23.715 8.18544 22.9769C8.31882 22.2413 8.22953 21.4827 7.9291 20.7983C7.64037 20.1283 7.16268 19.557 6.55437 19.1541C5.94394 18.7499 5.22863 18.5329 4.49648 18.53L4.49083 18.53H4.25C3.87428 18.53 3.51394 18.3807 3.24827 18.1151C2.98259 17.8494 2.83333 17.4891 2.83333 17.1133C2.83333 16.7376 2.98259 16.3773 3.24827 16.1116C3.51394 15.8459 3.87428 15.6967 4.25 15.6967H4.3775L4.41063 15.6963C5.16372 15.6787 5.8941 15.4349 6.50682 14.9967C7.10738 14.5671 7.56768 13.9702 7.83055 13.2809C8.1191 12.6055 8.20328 11.8598 8.07211 11.1364C7.93828 10.3983 7.58642 9.71727 7.06189 9.18104L7.0509 9.16993L6.9659 9.08493C6.83418 8.95336 6.72914 8.79656 6.65784 8.62458C6.58655 8.4526 6.54985 8.26825 6.54985 8.08208C6.54985 7.89591 6.58655 7.71157 6.65784 7.53958C6.72914 7.3676 6.83363 7.21136 6.96534 7.07979L6.96646 7.07868C7.09803 6.94696 7.25427 6.84247 7.42625 6.77118C7.59823 6.69988 7.78258 6.66319 7.96875 6.66319C8.15492 6.66319 8.33927 6.69988 8.51125 6.77118C8.68323 6.84247 8.83947 6.94696 8.97104 7.07868L9.0566 7.16423L9.06771 7.17522C9.60394 7.69975 10.285 8.05162 11.0231 8.18544C11.6639 8.30163 12.3221 8.24885 12.9336 8.03472C13.0623 8.0179 13.1883 7.98345 13.3081 7.93211C13.981 7.6437 14.5549 7.1648 14.9592 6.55437C15.3635 5.94394 15.5804 5.22863 15.5833 4.49648L15.5833 4.49083V4.25C15.5833 3.87428 15.7326 3.51394 15.9983 3.24827Z" fill="#1D1D1B"/>
</g>
<defs>
<clipPath id="clip0_438_1537">
<rect width="34" height="34" fill="white"/>
</clipPath>
</defs>
</svg>
