<svg width="29" height="31" viewBox="0 0 29 31" fill="none" xmlns="http://www.w3.org/2000/svg">
<path fill-rule="evenodd" clip-rule="evenodd" d="M14.5 0.083313C10.2428 0.083313 6.79167 3.53445 6.79167 7.79165C6.79167 12.0488 10.2428 15.5 14.5 15.5C18.7572 15.5 22.2083 12.0488 22.2083 7.79165C22.2083 3.53445 18.7572 0.083313 14.5 0.083313ZM9.875 7.79165C9.875 5.23733 11.9457 3.16665 14.5 3.16665C17.0543 3.16665 19.125 5.23733 19.125 7.79165C19.125 10.346 17.0543 12.4166 14.5 12.4166C11.9457 12.4166 9.875 10.346 9.875 7.79165Z" fill="#F7146B"/>
<path d="M8.33333 18.5833C6.28896 18.5833 4.32831 19.3954 2.88272 20.841C1.43713 22.2866 0.625 24.2473 0.625 26.2916V29.375C0.625 30.2264 1.31523 30.9166 2.16667 30.9166C3.01811 30.9166 3.70833 30.2264 3.70833 29.375V26.2916C3.70833 25.065 4.19561 23.8886 5.06296 23.0213C5.93032 22.1539 7.10671 21.6666 8.33333 21.6666H20.6667C21.8933 21.6666 23.0697 22.1539 23.937 23.0213C24.8044 23.8886 25.2917 25.065 25.2917 26.2916V29.375C25.2917 30.2264 25.9819 30.9166 26.8333 30.9166C27.6848 30.9166 28.375 30.2264 28.375 29.375V26.2916C28.375 24.2473 27.5629 22.2866 26.1173 20.841C24.6717 19.3954 22.711 18.5833 20.6667 18.5833H8.33333Z" fill="#F7146B"/>
</svg>
