<svg width="16" height="16" viewBox="0 0 16 16" fill="none" xmlns="http://www.w3.org/2000/svg">
<path fill-rule="evenodd" clip-rule="evenodd" d="M7.00879 3.57507C5.79585 2.36213 3.82927 2.36213 2.61633 3.57507C1.40339 4.78802 1.40339 6.75459 2.61633 7.96753L3.13614 8.48733C3.14463 8.49583 3.15288 8.50453 3.16086 8.51343L8 13.3526L12.8389 8.51364C12.847 8.5047 12.8553 8.49593 12.8639 8.48733L13.3837 7.96753C14.5966 6.75459 14.5966 4.78802 13.3837 3.57507C12.1707 2.36213 10.2042 2.36213 8.99121 3.57507L8.4714 4.09488C8.21105 4.35523 7.78894 4.35523 7.52859 4.09488L7.00879 3.57507ZM13.8323 9.40452C13.8243 9.41346 13.816 9.42223 13.8074 9.43083L8.47209 14.7661C8.34703 14.8912 8.17739 14.9614 8.00053 14.9614C8.00035 14.9614 8.00071 14.9614 8.00053 14.9614C8.00035 14.9614 7.99964 14.9614 7.99947 14.9614C7.8226 14.9614 7.65297 14.8912 7.52791 14.7661L2.19264 9.43083C2.18404 9.42223 2.17573 9.41346 2.1677 9.40452L1.67352 8.91034C-0.0601184 7.1767 -0.060121 4.36591 1.67352 2.63226C3.40716 0.898621 6.21796 0.898621 7.9516 2.63226L8 2.68066L8.0484 2.63226C9.78204 0.89862 12.5928 0.898621 14.3265 2.63226C16.0601 4.36591 16.0601 7.1767 14.3265 8.91034L13.8323 9.40452Z" fill="#1D1D1B"/>
</svg>
