<svg width="51" height="37" viewBox="0 0 51 37" fill="none" xmlns="http://www.w3.org/2000/svg">
<g clip-path="url(#clip0_367_356)">
<rect width="50.4545" height="37" fill="#F7146B"/>
<path d="M8.12233 6.72475C7.94433 6.72475 7.76807 6.75985 7.60364 6.82805C7.43922 6.89624 7.28986 6.99619 7.16411 7.12218C7.03836 7.24816 6.93869 7.39771 6.8708 7.56226C6.80291 7.72681 6.76813 7.90313 6.76847 8.08114V21.6332C6.76847 26.1304 10.4046 29.7766 14.8874 29.7766C19.3712 29.7766 23.0064 26.1304 23.0064 21.6332V12.1478C23.0064 11.3994 22.4001 10.7922 21.6526 10.7922C21.4747 10.7924 21.2986 10.8277 21.1344 10.896C20.9702 10.9643 20.821 11.0643 20.6954 11.1903C20.5699 11.3162 20.4703 11.4657 20.4025 11.6301C20.3348 11.7946 20.3 11.9707 20.3004 12.1486V21.5836C20.3004 24.6193 17.8718 27.0672 14.8874 27.0672C11.9031 27.0672 9.47451 24.6201 9.47451 21.5845V8.08114C9.47451 7.33189 8.86906 6.72475 8.12233 6.72475ZM28.4177 1.28655e-07C26.8369 -0.000281099 25.2903 0.460496 23.9674 1.32589C22.6445 2.19128 21.6028 3.42372 20.9697 4.87223C20.5779 5.76611 21.2523 6.76595 22.2277 6.76595C22.4946 6.76408 22.7551 6.68482 22.9778 6.5378C23.2005 6.39078 23.3758 6.18231 23.4824 5.93766C24.3351 4.03468 26.2263 2.71025 28.416 2.71025C31.4046 2.71025 33.8356 5.1758 33.8356 8.20475V21.6534C33.8356 22.0126 33.9783 22.3571 34.2323 22.611C34.4863 22.865 34.8308 23.0077 35.1899 23.0077C35.5491 23.0077 35.8936 22.865 36.1476 22.611C36.4015 22.3571 36.5442 22.0126 36.5442 21.6534V8.12739C36.5442 3.63861 32.9048 1.28655e-07 28.416 1.28655e-07H28.4177Z" fill="white"/>
<path d="M28.3874 6.76932C27.639 6.76932 27.031 7.37645 27.031 8.12318V21.6484C27.031 26.138 30.6764 29.7758 35.1727 29.7758C39.6682 29.7758 43.3135 26.1363 43.3135 21.6484V20.3046C43.3135 19.5579 42.7056 18.9507 41.9572 18.9507C41.2087 18.9507 40.6008 19.5579 40.6008 20.3046V21.5996C40.6008 24.6302 38.1655 27.0949 35.1727 27.0949C32.1791 27.0949 29.7446 24.6285 29.7446 21.5996V8.12318C29.7446 7.37645 29.1367 6.76932 28.3874 6.76932ZM0 8.12823C0 3.63946 3.63525 0 8.11814 0C12.6019 0 16.2371 3.63861 16.2371 8.12823V21.6534C16.2248 22.004 16.0768 22.3361 15.8244 22.5797C15.572 22.8234 15.2349 22.9596 14.8841 22.9596C14.5333 22.9596 14.1962 22.8234 13.9438 22.5797C13.6914 22.3361 13.5434 22.004 13.5311 21.6534V8.20643C13.5311 5.17748 11.1025 2.71109 8.11814 2.71109C5.13375 2.71109 2.70605 5.1758 2.70605 8.20643V10.8267C2.69368 11.1773 2.54572 11.5094 2.29333 11.753C2.04094 11.9967 1.70383 12.1329 1.35302 12.1329C1.00222 12.1329 0.665106 11.9967 0.412716 11.753C0.160326 11.5094 0.0123624 11.1773 0 10.8267L0 8.12739L0 8.12823ZM1.25716 16.2405C0.542386 16.2884 0 16.9191 0 17.6389V22.1908C0 25.9757 1.48841 29.4655 3.90602 32.0597C4.16334 32.3355 4.51148 32.4734 4.85877 32.4734C5.20691 32.4734 5.5315 32.3447 5.78882 32.0866C6.02997 31.8451 6.16819 31.5196 6.17447 31.1784C6.18074 30.8372 6.05457 30.5069 5.82245 30.2568C3.81075 28.1241 2.69148 25.3024 2.69427 22.3707V17.591C2.69427 16.8434 2.08966 16.2371 1.3463 16.2371L1.25716 16.2405ZM45.3031 0.00420455H45.2115C45.0263 0.00801499 44.8415 0.0228976 44.6582 0.0487727C44.6497 0.0487727 44.6439 0.0504545 44.6355 0.0521364C43.5073 0.213052 42.475 0.775488 41.7282 1.63619C40.9813 2.4969 40.57 3.59811 40.5697 4.73768V13.5311C40.5697 14.2778 41.1751 14.8841 41.9218 14.8841C41.9521 14.8841 41.9832 14.8841 42.0127 14.8816C42.7308 14.8336 43.274 14.2046 43.274 13.4857V4.79655C43.274 3.70589 44.1116 2.76575 45.2022 2.71193C45.715 2.68509 46.2186 2.85538 46.6099 3.18789C46.6301 3.20555 46.6503 3.22152 46.6713 3.24086C46.6923 3.26105 46.7159 3.28123 46.736 3.30309C46.7604 3.32748 46.7848 3.35355 46.8092 3.38045C46.8319 3.40568 46.8538 3.43091 46.8748 3.45698C46.8967 3.48305 46.9168 3.50995 46.937 3.53686C46.9522 3.55705 46.9673 3.57639 46.9807 3.59657C47.0077 3.63609 47.0337 3.67645 47.0564 3.71682C47.0674 3.73448 47.0766 3.75214 47.0859 3.7698C47.1111 3.81605 47.1346 3.86314 47.1582 3.91191L47.175 3.95227C47.2272 4.07399 47.2667 4.20081 47.2927 4.33068C47.3053 4.38955 47.3146 4.44841 47.3213 4.5098L47.3238 4.54343C47.3297 4.60734 47.3339 4.67041 47.3339 4.736V22.3345C47.3339 22.9442 47.2852 23.5438 47.191 24.1282C47.1588 24.3219 47.1691 24.5203 47.2212 24.7096C47.2733 24.8989 47.366 25.0746 47.4928 25.2245C47.6196 25.3744 47.7775 25.495 47.9555 25.5778C48.1336 25.6606 48.3275 25.7037 48.5238 25.7041H48.5297C49.194 25.7041 49.7625 25.2197 49.8659 24.5604C49.9807 23.8288 50.038 23.0894 50.0375 22.3488V4.73684C50.0392 3.51491 49.5665 2.34003 48.7189 1.45982C47.9273 0.631888 46.8614 0.120444 45.7202 0.0210227L45.6689 0.0168182C45.576 0.010563 45.4829 0.00607734 45.3898 0.00336364C45.362 0.00336364 45.3334 0 45.3048 0L45.3031 0.00420455Z" fill="white"/>
<path d="M25.0372 28.4043C24.4049 28.4043 23.8095 28.7045 23.4311 29.2116L23.4252 29.22C21.3263 32.0345 17.977 33.8593 14.2105 33.8593C13.0952 33.8599 11.9858 33.6973 10.9175 33.3766C10.7914 33.3379 10.6652 33.3203 10.5374 33.3203C10.1868 33.3203 9.84368 33.4607 9.5872 33.7155C8.86823 34.437 9.17936 35.663 10.1506 35.9624C11.4364 36.3585 12.7995 36.546 14.2063 36.546H14.24C16.3986 36.5418 18.4411 36.0818 20.271 35.2131C22.1005 34.3443 23.7241 33.0959 25.0339 31.551C26.3652 33.1219 28.0238 34.3829 29.8935 35.2457C31.7632 36.1085 33.7989 36.5523 35.858 36.546C39.0005 36.546 41.9025 35.5512 44.2562 33.8198C44.3319 33.7643 44.3983 33.7029 44.4563 33.6398L44.4589 33.6364C44.6077 33.5229 44.7532 33.4077 44.8961 33.2883L44.9214 33.2681C45.0517 33.1588 45.1787 33.0495 45.3048 32.9368C45.3275 32.9166 45.3519 32.8956 45.3746 32.8737C45.4806 32.7779 45.5832 32.6803 45.6857 32.5811L45.8102 32.4634C45.8977 32.3776 45.9826 32.2893 46.0667 32.201C46.1121 32.1539 46.1592 32.1077 46.2054 32.058L46.218 32.0454C46.4897 31.7536 46.7512 31.4526 46.9976 31.1389C47.6972 30.2526 47.0775 28.95 45.9515 28.95H45.912C45.5024 28.95 45.119 29.1435 44.865 29.4672C44.6642 29.7195 44.4532 29.9636 44.2327 30.1988L44.2285 30.2022C43.9055 30.5461 43.5616 30.8698 43.2 31.1717L43.179 31.1885C43.1168 31.2407 43.0529 31.2903 42.9906 31.3424L42.9486 31.3761L42.7686 31.5148L42.7115 31.5569L42.5374 31.6838C42.5155 31.7007 42.4937 31.7158 42.4726 31.7301C42.4155 31.7713 42.3574 31.8108 42.3003 31.8495L42.2279 31.8983L42.0555 32.011L41.9782 32.0597C41.9215 32.0964 41.8643 32.1323 41.8066 32.1674L41.7251 32.2161L41.5535 32.317L41.4694 32.365C41.4114 32.3986 41.3534 32.4306 41.2954 32.4617L41.2113 32.5062L41.033 32.6004L40.9514 32.6408C40.8892 32.6719 40.8287 32.7022 40.7664 32.7316L40.6992 32.7627C40.4755 32.867 40.2467 32.9645 40.0155 33.0545L39.9524 33.0798C39.8969 33.1008 39.8406 33.1218 39.7843 33.1411C39.7447 33.1549 39.7055 33.1695 39.6665 33.1849L39.5118 33.2378L39.3789 33.2824L39.2276 33.3303L39.0871 33.3732C39.0377 33.3879 38.9881 33.4019 38.9383 33.4153L38.792 33.4565C38.7432 33.4699 38.6928 33.4817 38.644 33.4943C38.5448 33.518 38.4456 33.5415 38.3463 33.565L38.1907 33.5986L38.0452 33.6289C37.9923 33.6398 37.9376 33.649 37.8855 33.6583C37.8375 33.6667 37.7888 33.676 37.74 33.6835L37.5769 33.7088C37.5289 33.7155 37.4818 33.7239 37.4339 33.7289C37.3767 33.7373 37.3195 33.7441 37.264 33.7508L37.1245 33.7676L36.9479 33.7844L36.8125 33.797L36.625 33.8105C36.5821 33.813 36.5409 33.8172 36.4971 33.8189C36.4282 33.8223 36.3575 33.8256 36.2886 33.8273C36.2516 33.8273 36.2163 33.8307 36.1801 33.8324C36.075 33.8349 35.9674 33.8366 35.8606 33.8366C32.0992 33.8366 28.754 32.0177 26.6535 29.2133L26.6467 29.2259L26.6383 29.2133C26.4526 28.9633 26.2113 28.76 25.9333 28.6196C25.6554 28.4792 25.3486 28.4055 25.0372 28.4043Z" fill="white"/>
</g>
<defs>
<clipPath id="clip0_367_356">
<rect width="50.4545" height="37" fill="white"/>
</clipPath>
</defs>
</svg>
