<svg width="29" height="31" viewBox="0 0 29 31" fill="none" xmlns="http://www.w3.org/2000/svg">
<path fill-rule="evenodd" clip-rule="evenodd" d="M14.5 0.083252C10.2428 0.083252 6.79167 3.53439 6.79167 7.79159C6.79167 12.0488 10.2428 15.4999 14.5 15.4999C18.7572 15.4999 22.2083 12.0488 22.2083 7.79159C22.2083 3.53439 18.7572 0.083252 14.5 0.083252ZM9.875 7.79159C9.875 5.23727 11.9457 3.16659 14.5 3.16659C17.0543 3.16659 19.125 5.23727 19.125 7.79159C19.125 10.3459 17.0543 12.4166 14.5 12.4166C11.9457 12.4166 9.875 10.3459 9.875 7.79159Z" fill="white"/>
<path d="M8.33333 18.5833C6.28896 18.5833 4.32831 19.3954 2.88272 20.841C1.43713 22.2866 0.625 24.2472 0.625 26.2916V29.3749C0.625 30.2264 1.31523 30.9166 2.16667 30.9166C3.01811 30.9166 3.70833 30.2264 3.70833 29.3749V26.2916C3.70833 25.065 4.19561 23.8886 5.06296 23.0212C5.93032 22.1539 7.10671 21.6666 8.33333 21.6666H20.6667C21.8933 21.6666 23.0697 22.1539 23.937 23.0212C24.8044 23.8886 25.2917 25.065 25.2917 26.2916V29.3749C25.2917 30.2264 25.9819 30.9166 26.8333 30.9166C27.6848 30.9166 28.375 30.2264 28.375 29.3749V26.2916C28.375 24.2472 27.5629 22.2866 26.1173 20.841C24.6717 19.3954 22.711 18.5833 20.6667 18.5833H8.33333Z" fill="white"/>
</svg>
