<svg width="16" height="16" viewBox="0 0 16 16" fill="none" xmlns="http://www.w3.org/2000/svg">
<path fill-rule="evenodd" clip-rule="evenodd" d="M10.1054 5.21001C10.5887 5.69788 11.2591 6.00008 12 6.00008C13.4728 6.00008 14.6667 4.80617 14.6667 3.33341C14.6667 1.86066 13.4728 0.666748 12 0.666748C10.5273 0.666748 9.33334 1.86066 9.33334 3.33341C9.33334 3.58477 9.36812 3.82801 9.43313 4.05857L5.89466 6.12354C5.41139 5.63564 4.741 5.33341 4.00001 5.33341C2.52725 5.33341 1.33334 6.52732 1.33334 8.00008C1.33334 9.47284 2.52725 10.6667 4.00001 10.6667C4.74113 10.6667 5.41164 10.3644 5.89492 9.87636L9.43396 11.9386C9.36842 12.1701 9.33334 12.4143 9.33334 12.6667C9.33334 14.1395 10.5273 15.3334 12 15.3334C13.4728 15.3334 14.6667 14.1395 14.6667 12.6667C14.6667 11.194 13.4728 10.0001 12 10.0001C11.2602 10.0001 10.5907 10.3014 10.1076 10.788L6.56702 8.72481C6.63194 8.49437 6.66668 8.25128 6.66668 8.00008C6.66668 7.74875 6.63191 7.50554 6.56692 7.275L10.1054 5.21001ZM12 2.00008C11.2636 2.00008 10.6667 2.59703 10.6667 3.33341C10.6667 3.56476 10.7256 3.78234 10.8292 3.97197C10.8361 3.98242 10.8428 3.99312 10.8492 4.00407C10.8555 4.01493 10.8615 4.0259 10.8672 4.03697C11.1025 4.41507 11.5219 4.66675 12 4.66675C12.7364 4.66675 13.3333 4.06979 13.3333 3.33341C13.3333 2.59703 12.7364 2.00008 12 2.00008ZM5.13346 7.29754C5.13897 7.30827 5.1448 7.3189 5.15094 7.32944C5.15713 7.34005 5.16357 7.35042 5.17025 7.36056C5.27423 7.55042 5.33334 7.76835 5.33334 8.00008C5.33334 8.23184 5.27421 8.4498 5.17021 8.63967C5.16347 8.64991 5.15697 8.66039 5.15073 8.6711C5.14467 8.68149 5.13893 8.69198 5.1335 8.70255C4.8983 9.08126 4.4786 9.33341 4.00001 9.33341C3.26363 9.33341 2.66668 8.73646 2.66668 8.00008C2.66668 7.2637 3.26363 6.66675 4.00001 6.66675C4.47858 6.66675 4.89825 6.91888 5.13346 7.29754ZM10.6667 12.6667C10.6667 12.4501 10.7184 12.2455 10.8101 12.0646C10.8266 12.0429 10.842 12.0199 10.8561 11.9957C10.8696 11.9725 10.8815 11.9489 10.892 11.9249C11.1313 11.5682 11.5382 11.3334 12 11.3334C12.7364 11.3334 13.3333 11.9304 13.3333 12.6667C13.3333 13.4031 12.7364 14.0001 12 14.0001C11.2636 14.0001 10.6667 13.4031 10.6667 12.6667Z" fill="#1D1D1B"/>
</svg>
